<?xml version="1.0" standalone="no"?>
<!DOCTYPE svg PUBLIC "-//W3C//DTD SVG 20010904//EN"
 "http://www.w3.org/TR/2001/REC-SVG-20010904/DTD/svg10.dtd">
<svg version="1.0" xmlns="http://www.w3.org/2000/svg"
 width="1024.000000pt" height="1024.000000pt" viewBox="0 0 1024.000000 1024.000000"
 preserveAspectRatio="xMidYMid meet">

<g transform="translate(0.000000,1024.000000) scale(0.100000,-0.100000)"
fill="#000000" stroke="none">
<path d="M2930 8009 c-220 -28 -390 -115 -542 -278 -125 -135 -205 -306 -228
-484 -11 -91 -7 -4177 4 -4237 27 -139 100 -304 179 -402 35 -43 56 -82 70
-128 10 -36 25 -72 33 -81 8 -9 11 -18 8 -22 -3 -3 6 -18 20 -34 14 -15 26
-33 26 -39 0 -6 9 -21 20 -34 11 -13 20 -27 20 -32 0 -5 5 -6 11 -3 6 4 8 13
5 21 -3 8 -1 14 5 14 7 0 9 -10 5 -26 -8 -30 8 -54 35 -54 10 0 21 -5 25 -12
4 -7 3 -8 -4 -4 -23 14 -12 -9 17 -36 15 -15 31 -24 35 -21 11 11 6 23 -9 23
-8 0 -15 5 -15 10 0 13 27 13 35 0 3 -5 18 -7 34 -4 19 4 33 0 46 -12 14 -14
20 -15 23 -6 3 10 7 10 20 0 12 -10 14 -10 8 0 -4 6 -2 12 3 12 6 0 11 -11 11
-25 0 -21 5 -25 28 -24 l27 1 -25 8 c-28 9 -18 13 42 19 10 0 17 4 17 9 -4 21
3 24 15 6 12 -16 23 -19 65 -17 31 2 51 -1 51 -8 0 -5 -4 -7 -10 -4 -5 3 -10
2 -10 -4 0 -21 19 -21 31 0 10 20 12 20 21 6 11 -21 32 -22 24 -2 -3 9 0 15 9
15 8 0 15 -7 15 -16 0 -8 4 -13 9 -10 5 4 12 0 15 -6 3 -7 3 -3 1 8 -5 19 -1
22 35 26 44 4 66 -8 28 -15 -20 -4 -19 -4 5 -6 15 0 27 4 27 9 0 6 7 10 15 10
18 0 20 -16 3 -23 -7 -3 -3 -4 8 -4 14 1 20 6 17 14 -3 7 2 13 11 13 9 0 16
-7 16 -15 0 -8 5 -15 11 -15 6 0 9 6 6 13 -4 10 4 14 24 14 16 0 29 -4 29 -9
0 -4 -5 -8 -11 -8 -5 0 -7 -5 -3 -12 5 -8 11 -5 17 10 8 18 18 22 53 22 32 0
44 -4 47 -17 4 -15 5 -16 6 -2 1 23 49 31 62 10 9 -14 10 -14 5 1 -4 14 -1 16
18 8 13 -4 29 -4 36 0 9 5 20 4 27 -2 8 -6 18 -7 26 -1 13 10 99 9 116 -1 5
-4 12 -2 16 4 4 6 10 8 15 5 14 -9 119 -12 114 -3 -3 4 2 8 10 8 8 0 17 -3 19
-7 3 -5 64 -6 137 -3 72 3 138 2 145 -3 8 -4 16 -4 19 1 3 5 20 7 38 5 18 -1
77 -4 131 -5 57 -2 97 -7 97 -13 0 -5 4 -5 8 2 8 13 16 14 224 13 91 0 149 -4
153 -10 5 -7 11 -8 19 -1 15 13 112 12 145 -1 17 -6 27 -6 29 1 2 6 10 11 18
11 8 0 14 6 14 13 0 8 3 7 10 -3 13 -21 481 -20 507 1 12 10 15 10 9 2 -7 -12
21 -20 49 -13 22 5 51 6 59 2 21 -11 79 -6 84 6 4 11 6 11 12 1 12 -18 60 -21
67 -4 4 12 7 12 18 1 8 -8 33 -12 67 -10 142 7 204 8 213 3 6 -2 62 -4 125 -2
135 3 104 3 357 0 112 -1 203 2 203 6 0 5 6 5 13 0 16 -11 150 -11 158 -1 3 5
18 4 34 -2 15 -6 36 -8 45 -5 10 3 21 1 25 -5 3 -6 10 -8 15 -5 5 3 35 7 67 9
32 3 66 7 76 11 9 4 17 3 17 -1 0 -5 15 -10 33 -11 17 -1 27 1 20 5 -9 6 -7
11 7 20 16 10 18 9 14 -3 -4 -8 -2 -15 4 -15 5 0 12 7 16 15 3 8 18 15 34 15
15 0 34 6 41 12 11 11 13 9 8 -10 -3 -13 -1 -20 5 -16 6 4 14 1 18 -6 4 -7 13
-9 20 -5 8 5 5 14 -11 31 -12 13 -19 27 -16 31 4 3 7 2 7 -4 0 -6 9 -13 20
-16 25 -6 25 0 3 26 -17 19 -17 20 2 10 11 -6 27 -8 35 -6 12 4 12 3 1 -5 -17
-12 -10 -34 12 -38 15 -2 17 4 13 41 -4 34 -2 44 11 49 9 4 21 2 26 -3 6 -6 4
-9 -4 -8 -16 2 -19 -4 -19 -36 0 -14 6 -24 15 -24 10 0 13 7 9 22 -4 15 0 24
11 29 9 3 13 11 9 17 -4 7 -3 9 4 5 5 -3 13 0 16 6 4 7 4 3 2 -9 -4 -20 -2
-21 16 -12 11 6 17 17 14 25 -4 9 2 14 16 14 21 0 21 0 -2 -25 -13 -14 -21
-28 -17 -31 4 -4 9 1 13 10 9 23 22 20 26 -6 3 -21 4 -21 9 4 4 17 2 25 -4 21
-7 -4 -8 1 -3 12 4 11 0 25 -10 36 -15 16 -14 17 5 12 11 -3 23 -14 26 -24 4
-11 11 -16 17 -13 5 4 6 9 2 13 -5 3 -10 15 -11 27 -2 15 3 20 19 20 11 -1 23
5 25 12 3 7 -1 10 -11 6 -9 -3 -16 -1 -16 6 0 6 5 8 12 4 8 -5 9 -2 5 10 -6
15 -2 14 23 -4 25 -18 30 -19 30 -6 0 9 6 16 13 16 9 0 8 3 -2 9 -8 5 -10 14
-6 21 6 10 11 9 22 -5 12 -18 13 -17 13 8 0 17 -5 27 -15 27 -8 0 -15 5 -15
11 0 5 -4 8 -10 4 -5 -3 -7 -12 -3 -20 3 -10 -1 -15 -11 -15 -15 0 -15 3 -1
30 14 28 17 29 31 15 22 -21 27 -19 13 8 -9 17 -9 20 1 10 7 -6 20 -9 29 -6
14 4 14 3 1 -6 -13 -9 -13 -12 3 -28 10 -11 17 -13 17 -5 0 7 -5 12 -12 12 -6
0 -3 9 7 20 18 19 17 20 -3 20 -12 0 -22 5 -22 10 0 10 17 13 50 11 10 0 11 1
3 5 -7 3 -13 14 -13 25 0 10 -5 19 -11 19 -5 0 -8 -4 -4 -9 7 -13 -35 -25 -46
-14 -5 5 -3 17 5 29 15 18 15 18 9 -3 -3 -13 -1 -23 5 -23 15 0 20 30 10 58
-9 25 -1 28 25 8 17 -13 24 -32 8 -22 -5 4 -4 -5 2 -18 14 -30 44 -49 60 -39
8 5 3 9 -13 13 -18 4 -25 13 -25 30 -1 14 4 28 10 32 5 4 -1 8 -15 8 l-25 1
24 13 24 13 -27 7 c-15 4 -24 11 -21 17 5 6 12 5 22 -3 14 -11 15 -10 8 11 -6
21 -5 23 13 19 15 -4 19 -2 15 8 -3 8 0 14 6 14 19 0 12 27 -9 33 -11 3 -20
13 -20 22 0 9 5 13 10 10 6 -4 8 -11 5 -16 -4 -5 -1 -9 5 -9 6 0 10 15 8 35
-1 19 -7 35 -12 35 -5 0 -1 6 9 14 11 8 26 11 35 8 13 -5 13 -3 1 11 -17 21
-31 22 -31 2 0 -8 -4 -15 -10 -15 -6 0 -5 10 2 26 8 18 17 24 31 20 13 -3 21
1 24 15 3 10 9 19 13 19 4 0 10 14 12 31 5 30 4 31 -11 11 -14 -18 -18 -19
-29 -6 -9 10 -10 14 -1 14 16 0 38 31 39 53 0 9 -5 17 -11 17 -6 0 -8 -8 -5
-18 4 -11 -1 -22 -14 -30 -18 -11 -19 -10 -13 21 3 17 16 44 30 58 l24 26 -20
25 c-19 24 -20 40 -19 241 0 195 2 215 17 210 14 -4 13 -3 -1 10 -10 8 -18 21
-18 30 0 18 34 32 52 21 10 -6 10 -4 0 8 -7 9 -21 14 -32 11 -24 -6 -26 3 -5
24 9 8 13 18 10 21 -3 4 -10 0 -15 -8 -7 -11 -10 -7 -10 16 0 18 6 34 14 37 7
3 15 17 18 30 4 18 1 24 -9 20 -8 -3 -11 -13 -8 -24 4 -11 2 -19 -5 -19 -6 0
-11 18 -10 43 0 23 -1 67 -1 97 -2 90 0 97 21 103 11 3 20 11 20 18 0 10 -3
10 -12 1 -22 -22 -28 -12 -28 50 0 44 5 67 17 80 16 18 16 18 0 12 -12 -4 -17
-1 -17 10 0 9 5 16 11 16 8 0 8 4 0 14 -10 12 -16 166 -10 256 1 16 1 298 0
419 -1 59 3 77 17 87 16 13 16 14 0 8 -16 -5 -17 3 -17 81 0 92 13 132 36 113
10 -8 13 -5 13 13 0 19 -2 21 -10 9 -5 -8 -10 -11 -10 -6 0 5 -6 3 -14 -3 -9
-8 -16 -8 -20 -2 -4 5 -2 12 2 15 5 3 7 24 5 46 -2 25 0 40 7 40 6 0 8 5 4 12
-4 6 -9 43 -10 81 -2 56 0 68 12 63 8 -3 14 1 14 10 0 10 -6 14 -14 11 -11 -4
-13 13 -13 89 1 78 3 94 16 94 14 1 13 3 -1 14 -21 16 -25 91 -5 99 9 4 9 6 0
6 -9 1 -13 19 -13 57 0 31 4 53 9 49 5 -3 12 -1 16 5 3 5 -1 10 -9 10 -17 0
-21 15 -7 25 6 3 6 18 0 38 -5 17 -9 33 -9 34 0 1 7 0 16 -4 14 -5 15 -3 5 15
-17 31 -13 41 12 36 12 -2 16 -2 10 2 -7 3 -13 14 -13 25 0 10 -5 19 -11 19
-5 0 -8 4 -5 9 4 5 0 11 -6 14 -9 3 -6 8 7 13 26 10 46 30 38 37 -3 3 -12 0
-20 -8 -8 -8 -20 -15 -26 -15 -7 0 -6 4 2 9 13 8 13 12 0 27 -11 14 -11 18 -1
22 10 3 10 7 0 20 -12 14 -10 14 11 2 21 -11 23 -10 18 4 -4 9 -2 16 3 16 6 0
10 5 10 10 0 6 -6 10 -14 10 -7 0 -19 7 -26 15 -10 12 -10 15 4 15 9 0 16 -4
16 -10 0 -5 10 1 23 13 25 24 27 38 3 18 -8 -7 -21 -9 -27 -5 -9 5 -6 10 10
15 20 8 21 10 7 43 -14 33 -13 35 7 49 12 8 18 19 14 23 -4 5 -12 2 -17 -6 -8
-12 -10 -10 -10 8 0 13 -6 22 -15 22 -11 0 -12 -5 -5 -26 7 -19 7 -25 -1 -22
-16 5 -21 62 -9 90 10 22 10 22 7 -4 -3 -19 0 -28 9 -28 8 0 14 6 15 13 0 6 4
2 9 -9 9 -22 46 -38 55 -24 3 4 -2 13 -10 20 -8 7 -15 10 -15 7 0 -3 -11 5
-25 19 -14 14 -25 31 -25 39 0 8 -5 14 -12 12 -6 -1 -13 7 -15 18 l-3 20 9
-20 c8 -18 10 -18 16 -3 3 9 13 19 21 22 9 3 12 1 9 -4 -3 -6 1 -10 9 -10 9 0
16 4 16 9 0 5 14 14 30 20 33 11 35 14 20 41 -8 15 -6 22 12 34 17 12 19 18 9
30 -7 8 -10 19 -7 25 3 5 1 22 -4 37 -6 15 -8 29 -6 32 3 3 10 -7 15 -22 13
-32 26 -35 16 -3 -6 20 -12 48 -14 70 -1 4 -6 7 -12 7 -6 0 -9 -8 -7 -18 3
-12 -2 -24 -13 -31 -12 -7 -19 -7 -19 -1 0 5 5 10 11 10 6 0 9 7 5 15 -3 8 4
21 16 29 11 8 17 19 14 25 -4 5 -2 12 4 16 5 3 11 -2 11 -12 5 -71 18 -103 43
-103 6 0 5 4 -3 9 -9 6 -10 11 -2 15 6 4 11 12 11 18 0 6 -6 5 -16 -3 -14 -11
-15 -9 -11 18 3 18 8 37 13 44 5 8 2 11 -8 7 -11 -5 -14 0 -10 19 3 18 1 24
-6 19 -8 -4 -10 -2 -6 7 3 8 -2 17 -10 20 -9 4 -16 14 -16 23 0 18 -46 80
-110 149 -34 36 -38 47 -44 110 -34 401 -343 743 -733 810 -80 14 -262 15
-1570 13 -1413 -3 -1480 -4 -1507 -21 -53 -35 -73 -131 -39 -188 37 -63 -63
-59 1557 -59 1044 0 1490 -3 1528 -11 176 -37 353 -178 433 -344 69 -145 65
-36 65 -1859 l0 -1646 -37 -1 c-21 -1 -76 -1 -123 -1 l-85 -1 -5 1634 c-5
1536 -6 1637 -23 1679 -53 132 -152 227 -277 264 -41 12 -101 16 -261 16
l-207 0 -27 -32 c-25 -29 -27 -37 -21 -87 9 -73 78 -218 156 -325 95 -133 242
-261 423 -370 l27 -16 0 -120 c0 -100 -3 -120 -15 -120 -8 0 -15 5 -15 10 0 6
-6 10 -14 10 -8 0 -16 5 -18 12 -3 8 -9 8 -22 1 -21 -12 -18 -14 42 -33 23 -7
39 -17 34 -22 -11 -11 -102 23 -102 38 0 7 -9 10 -22 7 -22 -5 -22 -5 -3 10
10 8 25 13 32 10 8 -3 13 3 13 15 0 12 5 24 10 27 12 7 4 25 -11 25 -5 0 -9
-8 -9 -19 0 -10 -9 -21 -20 -24 -15 -4 -19 0 -17 16 1 16 -4 23 -23 25 -21 4
-22 2 -11 -12 12 -14 11 -16 -5 -11 -12 4 -11 1 5 -8 19 -12 21 -15 7 -20 -17
-7 -46 17 -46 37 0 6 5 17 12 24 14 14 11 17 -22 26 -18 6 -21 5 -10 -3 8 -5
11 -13 7 -17 -9 -10 -36 14 -54 50 -9 17 -68 83 -133 146 -126 125 -202 229
-268 370 -56 119 -80 185 -97 265 -10 52 -21 76 -40 93 l-26 22 -1405 0 c-988
0 -1411 -3 -1426 -11 -23 -12 -48 -67 -48 -105 0 -43 -68 -232 -111 -311 -63
-114 -151 -228 -275 -354 -89 -90 -114 -122 -114 -143 0 -15 -4 -25 -9 -21 -5
3 -12 1 -16 -5 -4 -6 -11 -8 -16 -5 -5 4 -9 1 -9 -5 0 -7 -7 -10 -15 -7 -8 4
-17 1 -21 -4 -3 -6 -14 -9 -23 -6 -11 2 -22 -8 -34 -31 -16 -31 -16 -34 -2
-28 9 3 19 6 21 6 2 0 4 6 4 13 0 7 9 13 20 13 31 0 24 -12 -20 -34 -22 -11
-40 -16 -40 -11 0 14 -17 10 -35 -7 -15 -15 -15 -14 -9 11 5 20 4 26 -5 21 -6
-4 -11 -14 -11 -21 0 -8 -6 -12 -13 -9 -10 3 -13 -4 -12 -25 1 -20 -4 -31 -15
-34 -16 -4 -17 9 -16 141 l1 145 110 66 c117 70 258 195 342 304 97 126 173
308 159 383 -4 19 -18 42 -34 54 -25 20 -35 21 -247 18 l-220 -3 -67 -32
c-117 -55 -190 -139 -229 -264 -18 -59 -19 -129 -19 -2013 l0 -1952 -64 -17
c-36 -9 -72 -20 -80 -23 -9 -3 -16 -1 -16 4 0 6 8 13 18 15 13 4 13 5 -4 6
-12 0 -28 -7 -35 -16 -10 -11 -10 -14 -1 -9 7 4 12 1 12 -8 0 -10 -9 -16 -22
-16 -28 0 -55 -16 -45 -27 5 -4 12 -1 17 7 5 8 12 11 16 7 4 -3 -4 -15 -17
-26 l-24 -19 -5 161 c-3 89 -6 1002 -8 2029 -3 2083 -7 1945 67 2103 83 176
212 283 416 346 55 17 101 19 570 19 561 0 552 -1 598 62 25 34 26 117 3 153
-33 51 -26 50 -571 51 -280 0 -535 -3 -565 -7z m974 -759 c-5 -30 -3 -40 7
-40 10 -1 8 -5 -5 -15 -11 -8 -16 -15 -12 -15 5 0 -2 -9 -15 -20 -13 -10 -19
-19 -14 -20 6 0 16 5 23 12 8 8 12 8 12 1 0 -6 -7 -13 -15 -17 -8 -3 -12 -12
-9 -20 3 -8 1 -17 -5 -21 -7 -3 -8 0 -5 9 3 9 3 16 0 16 -4 0 -12 -13 -17 -30
-7 -19 -18 -30 -30 -30 -10 0 -19 -5 -19 -11 0 -5 5 -7 10 -4 6 3 10 1 10 -4
0 -6 -4 -11 -10 -11 -5 0 -10 -7 -10 -15 0 -8 -7 -15 -16 -15 -11 0 -14 -6 -9
-21 5 -15 4 -19 -4 -15 -6 4 -11 3 -11 -3 0 -5 5 -13 10 -16 13 -8 13 -35 0
-35 -5 0 -7 7 -4 15 4 9 0 15 -9 15 -9 0 -19 -9 -22 -20 -3 -11 -13 -20 -22
-20 -11 0 -14 -6 -9 -26 6 -22 4 -25 -13 -19 -19 6 -20 3 -16 -27 3 -18 3 -27
-1 -20 -9 20 -38 14 -49 -10 -6 -13 -20 -24 -33 -26 -16 -3 -25 -12 -29 -34
-4 -19 -9 -25 -13 -17 -5 7 15 46 48 97 80 123 149 263 183 375 l31 97 49 0
49 0 -6 -40z m32 13 c-10 -10 -19 5 -10 18 6 11 8 11 12 0 2 -7 1 -15 -2 -18z
m404 17 c0 -5 -17 -12 -37 -15 -57 -10 -63 -13 -57 -30 5 -12 -1 -15 -27 -15
-19 0 -47 -1 -64 -2 -25 -3 -31 1 -33 20 -7 49 0 52 113 52 60 0 105 -4 105
-10z m1782 -35 c-5 -47 -6 -50 -23 -39 -7 4 -24 9 -37 10 -13 2 -41 12 -63 23
-22 12 -48 21 -58 21 -10 0 -22 7 -25 15 -5 14 9 15 102 13 l107 -3 -3 -40z
m318 26 c0 -11 5 -23 10 -26 6 -3 10 -13 10 -21 0 -25 95 -238 134 -297 20
-32 36 -60 36 -63 0 -3 13 -24 29 -47 28 -42 28 -42 9 -62 -14 -14 -19 -16
-16 -5 2 9 -4 14 -14 14 -10 -1 -14 4 -11 12 3 8 -1 14 -10 14 -8 0 -18 -6
-20 -12 -3 -7 -6 4 -6 25 -1 27 -5 37 -17 37 -11 0 -14 -5 -10 -17 7 -17 6
-17 -10 -1 -13 13 -15 20 -6 30 7 9 8 19 2 28 -9 14 -11 13 -14 -9 0 -5 -5
-13 -10 -18 -5 -5 -6 4 -2 20 6 24 4 28 -11 23 -14 -5 -18 0 -20 22 0 15 4 30
10 34 9 5 7 12 -6 25 -17 17 -18 17 -11 0 4 -11 0 -25 -11 -37 -15 -16 -16
-22 -5 -35 7 -9 10 -18 6 -22 -3 -3 -6 -2 -6 3 0 6 -9 20 -21 33 -13 14 -16
21 -7 19 7 -2 15 2 16 7 1 6 -5 10 -12 10 -8 0 -18 4 -22 8 -4 4 0 7 9 7 10 0
17 5 17 10 0 6 -8 10 -17 10 -15 0 -15 1 2 13 17 13 17 14 -5 20 -19 5 -21 8
-11 21 14 17 7 36 -15 36 -8 0 -14 5 -14 10 0 6 5 10 12 10 6 0 8 3 4 8 -4 4
-12 7 -18 7 -6 0 -12 7 -14 15 -1 8 -6 24 -10 34 -5 14 -4 17 5 11 10 -6 12 0
6 26 -4 19 -12 39 -17 44 -7 7 -8 -1 -3 -24 5 -21 4 -31 -3 -27 -12 7 -21 66
-10 66 18 0 6 19 -14 23 -13 2 7 5 45 6 60 1 67 -1 67 -18z m769 -13 c100 -48
161 -144 169 -264 5 -84 1 -87 -57 -52 -100 61 -193 156 -271 279 -27 42 -31
53 -19 60 21 15 128 1 178 -23z m-3983 6 c-15 -39 -111 -164 -168 -220 -63
-61 -161 -134 -181 -134 -17 0 -1 152 21 201 25 56 81 112 146 144 39 19 65
25 119 25 59 0 68 -2 63 -16z m2089 -55 c222 -30 425 -125 694 -322 121 -88
434 -344 646 -527 188 -162 582 -488 648 -536 60 -43 67 -51 73 -91 8 -53 -2
-124 -19 -135 -9 -6 -9 -10 1 -17 8 -5 12 -21 10 -41 l-3 -33 -71 59 c-39 32
-132 107 -206 166 -75 59 -189 154 -255 210 -277 240 -640 518 -898 687 -154
101 -360 208 -471 244 -332 108 -651 59 -1011 -155 -178 -105 -509 -339 -702
-496 -52 -43 -131 -106 -175 -141 -45 -35 -83 -67 -86 -71 -8 -9 -356 -298
-440 -364 -41 -33 -96 -77 -122 -98 -26 -21 -48 -38 -51 -38 -2 0 -4 60 -5
134 l-2 133 111 83 c94 70 293 231 309 250 4 5 200 169 674 564 435 362 694
499 1021 539 68 9 259 6 330 -4z m-1195 -79 c0 -5 -4 -10 -10 -10 -5 0 -10 5
-10 10 0 6 5 10 10 10 6 0 10 -4 10 -10z m-310 -155 c0 -8 -2 -15 -4 -15 -2 0
-6 7 -10 15 -3 8 -1 15 4 15 6 0 10 -7 10 -15z m-40 -105 c0 -11 -4 -20 -8
-20 -4 0 -8 9 -8 20 0 11 4 20 8 20 4 0 8 -9 8 -20z m-50 -40 c0 -5 -4 -10
-10 -10 -5 0 -10 5 -10 10 0 6 5 10 10 10 6 0 10 -4 10 -10z m4490 -16 c0 -2
-12 -4 -27 -4 -21 0 -24 3 -14 9 13 8 41 5 41 -5z m-4554 -40 c-3 -9 -6 -20
-6 -25 0 -6 -4 -8 -9 -5 -12 8 -2 46 11 46 6 0 7 -7 4 -16z m49 -14 c-3 -5
-12 -10 -18 -10 -7 0 -6 4 3 10 19 12 23 12 15 0z m4521 -86 c19 -3 29 -12 22
-19 -12 -13 -57 16 -72 46 -23 45 -20 48 9 9 14 -19 32 -35 41 -36z m-3 51
c-3 -9 -8 -14 -10 -11 -3 3 -2 9 2 15 9 16 15 13 8 -4z m-1493 -25 c0 -5 -5
-10 -11 -10 -5 0 -7 5 -4 10 3 6 8 10 11 10 2 0 4 -4 4 -10z m1450 -29 c0 -6
-4 -13 -10 -16 -5 -3 -10 1 -10 9 0 9 5 16 10 16 6 0 10 -4 10 -9z m-2885 -48
c91 -22 170 -69 232 -137 83 -92 98 -125 98 -226 0 -91 -10 -143 -26 -138 -5
2 -20 33 -33 68 -54 156 -161 251 -331 295 -72 18 -130 19 -210 1 -195 -42
-310 -167 -334 -360 -4 -36 -10 -51 -21 -51 -21 0 -47 60 -55 128 -35 290 321
509 680 420z m2923 11 c6 4 8 -2 5 -15 -4 -12 0 -25 8 -31 11 -7 9 -8 -6 -6
-11 2 -26 -3 -33 -12 -8 -8 -11 -9 -7 -2 7 15 4 15 -29 2 -20 -7 -26 -6 -26 4
0 8 -5 16 -10 18 -6 2 -1 9 10 16 16 10 20 10 18 0 -3 -15 49 -20 58 -7 3 5 1
9 -3 9 -5 0 -10 10 -10 22 -2 16 0 19 6 9 5 -7 13 -11 19 -7z m-1081 -119 c8
-23 0 -25 -21 -4 -18 17 -18 19 -2 19 9 0 19 -7 23 -15z m-4007 -15 c0 -5 -2
-10 -4 -10 -3 0 -8 5 -11 10 -3 6 -1 10 4 10 6 0 11 -4 11 -10z m1230 -52 c0
-2 -13 -36 -29 -76 -24 -63 -35 -78 -77 -108 -27 -19 -60 -42 -74 -52 -13 -9
-85 -66 -160 -125 -74 -60 -153 -123 -175 -140 -85 -69 -323 -275 -379 -329
-33 -32 -63 -58 -68 -58 -4 0 -8 -7 -8 -15 0 -8 -4 -15 -10 -15 -5 0 -10 7
-10 15 0 16 -25 21 -34 6 -9 -14 5 -42 18 -35 6 3 4 0 -4 -8 -8 -7 -21 -25
-29 -40 -14 -28 -31 -37 -31 -18 0 6 4 10 9 10 5 0 12 8 16 18 5 14 4 15 -6 5
-18 -18 -25 -16 -25 6 0 11 3 18 7 15 4 -2 14 -2 22 1 15 7 12 55 -5 55 -5 0
-6 -9 -3 -20 4 -11 2 -20 -4 -20 -6 0 -11 12 -11 26 0 17 -4 23 -12 18 -9 -5
-8 -2 1 10 10 12 17 14 25 6 5 -5 17 -10 26 -10 11 1 9 5 -7 19 -20 16 -21 21
-8 31 8 7 15 21 15 32 0 11 5 16 11 13 6 -4 13 2 16 14 3 12 12 21 20 21 8 0
11 5 8 10 -3 6 3 10 15 10 12 0 19 4 16 9 -5 8 25 40 52 56 8 4 19 0 27 -11 8
-11 15 -14 15 -7 0 6 -4 15 -10 18 -19 12 -11 38 10 32 11 -3 18 -2 15 2 -5 9
55 68 150 145 39 31 81 66 95 77 13 12 69 55 125 98 205 155 465 328 465 309z
m1597 -34 c119 -75 354 -241 453 -320 8 -7 49 -39 90 -72 41 -32 105 -85 141
-118 36 -32 98 -88 137 -123 39 -35 70 -67 67 -70 -2 -4 9 -12 25 -19 15 -7
31 -20 34 -29 5 -13 2 -13 -21 2 -24 16 -26 16 -14 2 10 -13 11 -17 1 -17 -9
0 -8 -5 3 -18 21 -23 21 -32 0 -48 -12 -9 -14 -13 -5 -14 32 0 50 49 22 62 -9
5 -5 6 12 5 35 -4 46 -15 28 -28 -12 -8 -10 -9 7 -4 27 8 54 -32 32 -46 -12
-8 -12 -10 -1 -18 11 -6 10 -10 -4 -15 -10 -4 -15 -4 -11 0 4 4 2 13 -4 21 -9
9 -8 13 0 13 6 0 11 5 11 12 0 9 -3 9 -12 0 -18 -18 -31 -15 -24 6 5 11 -2 8
-20 -10 -16 -15 -25 -31 -21 -34 4 -4 14 1 21 12 14 19 15 19 21 -1 4 -11 9
-27 12 -35 16 -41 12 -53 -7 -22 -11 18 -18 38 -14 43 3 6 -3 5 -14 -2 -17
-11 -25 -7 -68 35 -27 26 -100 91 -163 144 -63 53 -151 129 -195 167 -77 66
-265 216 -326 260 -15 11 -71 51 -124 88 -71 50 -97 75 -102 95 -4 22 -29 95
-42 124 -8 17 20 6 75 -28z m1323 -34 c0 -5 -4 -10 -10 -10 -5 0 -10 5 -10 10
0 6 5 10 10 10 6 0 10 -4 10 -10z m40 -10 c0 -5 -4 -10 -10 -10 -5 0 -10 5
-10 10 0 6 5 10 10 10 6 0 10 -4 10 -10z m-4420 -30 c0 -5 -4 -10 -9 -10 -6 0
-13 5 -16 10 -3 6 1 10 9 10 9 0 16 -4 16 -10z m5230 -5 c0 -8 -4 -15 -10 -15
-5 0 -7 7 -4 15 4 8 8 15 10 15 2 0 4 -7 4 -15z m-5 -125 c3 -5 1 -10 -4 -10
-6 0 -11 5 -11 10 0 6 2 10 4 10 3 0 8 -4 11 -10z m-3850 -213 c-3 -50 -7 -58
-60 -111 -39 -39 -55 -62 -51 -73 5 -13 4 -14 -8 -4 -11 9 -14 8 -12 -6 1 -13
-5 -17 -20 -16 -18 2 -23 -6 -34 -52 -10 -41 -16 -52 -25 -45 -7 6 -21 9 -31
8 -30 -3 -144 14 -144 21 0 10 184 188 245 237 57 46 126 94 137 94 3 0 5 -24
3 -53z m1740 26 c65 -44 345 -293 345 -308 0 -3 -126 -16 -158 -17 -27 0 -34
6 -38 30 -5 39 -17 62 -33 62 -15 0 -42 31 -40 46 0 3 -12 17 -28 32 -15 14
-27 30 -25 34 1 4 -2 8 -8 8 -5 0 -22 12 -37 28 -20 19 -28 39 -30 70 -2 23 1
42 5 42 4 0 25 -12 47 -27z m-2725 -413 c0 -5 -2 -10 -4 -10 -3 0 -8 5 -11 10
-3 6 -1 10 4 10 6 0 11 -4 11 -10z m-40 -54 c0 -3 -4 -8 -10 -11 -5 -3 -10 -1
-10 4 0 6 5 11 10 11 6 0 10 -2 10 -4z m3370 -47 c33 -27 58 -54 55 -59 -3 -4
0 -10 6 -12 16 -5 14 -59 -2 -69 -13 -8 -6 -13 13 -10 62 9 79 8 75 -2 -2 -6
-19 -15 -38 -19 -59 -12 -165 -65 -187 -93 -39 -50 -22 -125 32 -139 16 -4 62
6 128 28 119 40 299 89 408 110 93 19 248 38 258 32 4 -2 5 -29 4 -60 -3 -46
-7 -56 -22 -56 -9 0 -86 -14 -171 -30 -342 -67 -653 -184 -859 -323 -319 -214
-536 -456 -783 -874 -103 -175 -176 -327 -267 -563 -10 -25 -37 -92 -60 -150
-23 -58 -48 -125 -57 -150 -19 -56 -30 -69 -39 -44 -36 103 -187 471 -238 583
-296 645 -678 1081 -1141 1306 -198 97 -532 197 -779 235 -38 6 -73 13 -78 16
-4 3 -8 30 -8 60 0 64 -12 61 155 39 173 -23 400 -85 571 -155 62 -26 124 14
124 82 0 56 -44 97 -131 123 -35 10 -71 24 -79 30 -8 7 -21 10 -29 7 -12 -4
-12 -3 0 11 8 8 19 14 24 14 6 -1 9 5 7 13 -3 12 -1 13 9 3 7 -7 23 -13 36
-13 19 0 23 5 22 28 0 27 -1 27 -11 5 -12 -24 -23 -29 -33 -14 -3 5 11 27 30
48 19 21 35 41 35 44 0 4 18 19 40 34 38 26 45 27 113 22 167 -14 445 -134
652 -281 190 -134 317 -263 438 -443 70 -103 204 -357 255 -482 13 -33 26 -51
31 -45 5 5 25 49 45 97 175 425 412 720 746 928 195 121 474 228 622 238 9 0
44 -22 78 -50z m394 35 c9 -3 16 -12 16 -20 0 -20 -13 -17 -28 6 -13 22 -12
23 12 14z m-3738 -37 c1 -9 -2 -17 -7 -17 -5 0 -9 2 -9 4 0 2 -3 12 -7 22 -4
11 -2 15 7 12 7 -2 14 -12 16 -21z m3719 3 c3 -5 1 -10 -4 -10 -6 0 -11 5 -11
10 0 6 2 10 4 10 3 0 8 -4 11 -10z m-3739 -17 c7 -10 13 -25 13 -33 0 -11 -2
-10 -10 4 -9 14 -13 15 -19 6 -5 -8 -7 -3 -7 13 2 32 5 33 23 10z m3654 7 c0
-5 -2 -10 -4 -10 -3 0 -8 5 -11 10 -3 6 -1 10 4 10 6 0 11 -4 11 -10z m155 0
c3 -5 -1 -10 -9 -10 -9 0 -16 5 -16 10 0 6 4 10 9 10 6 0 13 -4 16 -10z m-69
-29 c0 -11 -5 -17 -13 -14 -17 6 -17 20 0 26 6 3 12 6 12 6 1 1 1 -7 1 -18z
m44 -1 c12 -23 5 -26 -16 -6 -16 17 -18 26 -4 26 5 0 14 -9 20 -20z m-3835 0
c3 -5 1 -10 -4 -10 -6 0 -11 5 -11 10 0 6 2 10 4 10 3 0 8 -4 11 -10z m16 -37
c13 -16 12 -17 -3 -4 -10 7 -18 15 -18 17 0 8 8 3 21 -13z m3774 -3 c3 -5 1
-10 -4 -10 -6 0 -11 5 -11 10 0 6 2 10 4 10 3 0 8 -4 11 -10z m-3705 -4 c0
-11 -19 -15 -25 -6 -3 5 1 10 9 10 9 0 16 -2 16 -4z m3440 -37 c0 -18 -2 -19
-15 -9 -15 12 -12 30 6 30 5 0 9 -10 9 -21z m-1659 -165 c58 -4 128 -2 179 5
71 11 85 10 97 -2 12 -12 13 -19 4 -36 -7 -11 -18 -21 -27 -21 -8 0 -17 -6
-20 -14 -3 -8 -15 -14 -27 -15 -12 0 -49 -4 -82 -8 -48 -6 -190 7 -190 17 0 1
-22 3 -50 4 -42 2 -52 7 -64 28 -8 14 -11 33 -7 43 5 14 14 16 49 11 23 -3 85
-9 138 -12z m-1994 -299 c266 -63 564 -188 758 -318 73 -50 213 -168 238 -202
l18 -25 -89 0 c-66 0 -93 4 -101 14 -18 22 -226 158 -306 201 -38 21 -82 46
-97 56 -14 11 -29 19 -32 19 -4 0 -51 22 -106 49 -55 27 -114 52 -130 56 -16
4 -32 11 -35 16 -4 5 -19 9 -35 9 -15 0 -30 7 -33 14 -3 8 -23 18 -44 21 -21
3 -46 10 -55 16 -10 5 -29 9 -42 9 -14 0 -27 4 -30 8 -2 4 -19 9 -37 10 -44 3
-49 8 -49 49 l0 36 53 -7 c28 -4 98 -18 154 -31z m4293 26 c0 -28 -14 -70 -22
-65 -18 11 -78 -6 -78 -23 0 -11 -7 -14 -25 -11 -14 3 -25 1 -25 -3 0 -5 -4
-9 -9 -9 -5 0 -22 -5 -38 -12 -15 -6 -34 -10 -40 -9 -7 1 -13 -3 -13 -9 0 -5
-9 -10 -20 -10 -50 0 -362 -142 -480 -219 -14 -9 -34 -22 -45 -29 -54 -34 -81
-52 -90 -59 -5 -4 -28 -20 -50 -34 -22 -15 -53 -38 -70 -53 -27 -24 -37 -26
-118 -26 -83 0 -87 1 -77 19 29 56 293 252 432 322 169 85 372 161 533 199
168 39 235 48 235 31z m0 -85 c0 -3 -4 -8 -10 -11 -5 -3 -10 -1 -10 4 0 6 5
11 10 11 6 0 10 -2 10 -4z m-4370 -363 c110 -43 295 -139 392 -204 133 -88
226 -167 358 -299 262 -261 477 -581 647 -960 55 -124 163 -427 163 -459 0
-17 -269 -16 -274 2 -26 88 -115 305 -178 432 -180 361 -355 612 -581 835
-179 176 -305 262 -534 365 l-118 52 -3 137 -3 138 33 -7 c18 -4 62 -18 98
-32z m4375 -5 c3 -24 5 -86 3 -138 l-3 -94 -76 -26 c-117 -40 -334 -169 -451
-267 -125 -104 -323 -326 -444 -498 -153 -216 -360 -627 -434 -862 l-13 -43
-94 0 c-75 0 -93 3 -93 15 0 8 12 18 26 21 16 4 22 10 16 16 -11 11 -52 -19
-52 -39 0 -8 -13 -13 -35 -13 -21 0 -35 5 -35 13 0 6 24 86 54 177 199 613
658 1247 1129 1557 144 95 410 217 484 222 6 1 15 -18 18 -41z m-3239 -363
c85 -41 222 -169 316 -295 80 -108 216 -341 270 -461 62 -139 148 -366 147
-387 -1 -15 -2 -15 -6 1 -2 9 -8 17 -13 17 -16 0 -51 72 -44 93 5 16 3 19 -10
14 -22 -9 -32 18 -15 40 12 15 12 16 -5 10 -14 -6 -17 -4 -12 8 3 9 2 13 -4
10 -15 -9 -38 18 -65 77 -14 29 -36 71 -50 93 -13 22 -34 56 -45 75 -45 78
-129 206 -149 228 -12 12 -21 27 -21 33 0 30 -222 286 -301 346 -50 39 -136
83 -162 83 -13 0 -47 30 -47 42 0 4 32 8 71 8 62 0 82 -5 145 -35z m2180 23
c4 -6 0 -16 -8 -22 -28 -21 -180 -190 -231 -258 -27 -37 -54 -65 -58 -62 -5 3
3 16 16 29 17 15 22 24 13 27 -9 3 -6 13 10 33 12 15 22 33 22 40 0 6 9 20 20
30 11 10 17 22 14 26 -3 5 6 20 20 34 14 14 20 25 15 25 -15 0 -189 -173 -219
-218 -14 -20 -31 -43 -37 -50 -7 -7 -13 -16 -13 -20 0 -4 -18 -27 -40 -52 -28
-31 -36 -47 -27 -52 11 -7 3 -12 -15 -9 -4 0 -15 -13 -25 -29 -9 -17 -21 -30
-26 -30 -4 0 -6 -4 -2 -9 3 -5 -1 -15 -8 -23 -7 -7 -16 -20 -20 -28 -4 -8 -13
-23 -19 -33 -11 -14 -10 -19 2 -28 13 -9 12 -10 -2 -5 -24 7 -72 -85 -63 -121
5 -23 5 -24 -10 -9 -9 9 -20 16 -25 16 -19 0 -124 -204 -116 -226 3 -9 -1 -14
-13 -14 -20 0 -47 -43 -37 -59 4 -6 1 -11 -6 -11 -18 0 -39 -36 -32 -55 4 -8
1 -15 -6 -15 -24 0 -4 72 65 235 92 219 181 392 272 527 159 238 290 364 423
411 54 18 156 22 166 5z m1054 -205 l0 -58 -63 -30 c-34 -16 -87 -47 -117 -69
-105 -77 -305 -244 -364 -305 -33 -33 -64 -57 -69 -54 -6 3 -7 1 -4 -4 4 -6
-7 -24 -23 -42 -17 -17 -30 -34 -30 -39 0 -4 -9 -13 -20 -20 -11 -7 -17 -18
-14 -27 5 -11 2 -13 -10 -9 -11 4 -16 1 -16 -10 0 -9 -4 -16 -10 -16 -5 0 -10
-6 -10 -12 0 -8 -17 -14 -45 -16 -64 -4 -60 13 37 143 127 172 346 381 524
503 47 32 217 122 231 122 2 0 3 -26 3 -57z m-4397 16 c112 -57 286 -182 401
-289 121 -113 369 -420 352 -437 -3 -3 -27 -6 -53 -6 -39 0 -50 5 -70 29 -12
16 -23 33 -23 38 0 5 -11 19 -24 31 -13 12 -38 41 -55 65 -17 24 -31 41 -31
39 0 -2 -37 32 -83 76 -125 120 -310 267 -417 333 l-95 58 -3 47 c-3 42 -1 47
18 47 11 0 49 -14 83 -31z m4683 -130 c3 -6 7 -82 8 -169 2 -137 1 -157 -12
-152 -10 3 -13 1 -8 -6 4 -7 2 -12 -4 -12 -7 0 -9 -7 -5 -17 5 -15 4 -16 -7
-5 -17 17 -25 321 -9 351 13 23 26 27 37 10z m-3389 -49 c13 -1 45 -49 38 -60
-11 -18 -23 -11 -18 10 4 16 2 19 -11 14 -10 -4 -16 -1 -16 8 0 8 -9 23 -20
33 -11 10 -20 23 -20 29 1 6 9 1 19 -11 11 -13 23 -23 28 -23z m1733 -19 c-5
-11 -15 -23 -21 -27 -6 -3 -3 5 6 20 20 30 30 35 15 7z m-3077 -262 c66 -33
182 -124 265 -208 74 -73 202 -233 202 -251 0 -5 -25 -8 -55 -7 -30 1 -55 6
-55 10 0 5 -5 5 -12 1 -7 -4 -8 -3 -4 5 4 6 12 9 17 6 5 -4 9 -2 9 4 0 6 -9
15 -19 21 -16 8 -20 6 -23 -12 -2 -12 -10 -24 -18 -26 -12 -4 -13 -3 -3 10 11
12 9 19 -11 37 -13 12 -29 19 -39 15 -12 -4 -14 -1 -10 15 4 17 0 22 -26 27
-17 4 -31 10 -31 15 0 5 -7 9 -15 9 -8 0 -15 6 -15 14 0 8 -6 17 -12 19 -10 4
-10 7 0 14 10 7 8 14 -8 28 -18 16 -20 17 -14 2 3 -10 1 -17 -5 -17 -15 0 -14
23 1 38 9 9 9 12 -1 12 -7 0 -11 6 -8 15 8 20 -8 28 -23 10 -7 -8 -19 -15 -27
-15 -11 0 -9 5 6 18 l22 17 -70 54 c-69 52 -71 55 -71 97 0 24 2 44 5 44 3 0
25 -10 48 -21z m4447 -21 c-1 -37 -5 -46 -35 -68 -19 -14 -33 -30 -31 -36 2
-6 -9 -23 -25 -38 -16 -15 -29 -33 -29 -39 0 -7 -4 -5 -10 3 -8 13 -12 12 -30
-6 -18 -18 -29 -45 -43 -110 -2 -7 -8 -18 -14 -25 -5 -8 -13 -21 -16 -29 -3
-8 -5 -4 -4 10 1 14 6 31 10 38 5 7 4 12 -2 12 -6 0 -11 5 -11 10 0 6 6 10 14
10 13 0 31 28 23 36 -1 2 -15 -7 -30 -20 -15 -13 -24 -26 -20 -30 3 -3 1 -6
-6 -6 -7 0 -11 -10 -10 -22 1 -13 -1 -31 -6 -41 -7 -17 -8 -17 -21 0 -7 10
-14 14 -15 8 -1 -5 -2 -16 -3 -22 -2 -18 -21 -16 -21 1 0 8 -4 18 -8 22 -4 4
-7 -1 -7 -10 0 -14 -5 -17 -21 -13 -19 5 -20 4 -5 -12 20 -22 21 -57 1 -65
-13 -5 -14 -2 -4 15 6 11 9 22 7 23 -2 1 -12 8 -23 16 -18 14 -19 14 -6 -2 22
-29 6 -51 -34 -46 -19 2 -35 0 -35 -4 0 -4 -4 -8 -10 -8 -17 0 -11 30 12 63
118 172 289 339 402 396 33 17 62 31 64 31 1 0 2 -19 2 -42z m0 -98 c0 -5 -4
-10 -10 -10 -5 0 -10 5 -10 10 0 6 5 10 10 10 6 0 10 -4 10 -10z m-30 -10 c0
-5 -4 -10 -10 -10 -5 0 -10 5 -10 10 0 6 5 10 10 10 6 0 10 -4 10 -10z m30
-24 c0 -2 -7 -6 -15 -10 -8 -3 -15 -1 -15 4 0 6 7 10 15 10 8 0 15 -2 15 -4z
m-4400 -16 c0 -5 -4 -10 -10 -10 -5 0 -10 5 -10 10 0 6 5 10 10 10 6 0 10 -4
10 -10z m4355 0 c-3 -5 -14 -10 -23 -10 -15 0 -15 2 -2 10 20 13 33 13 25 0z
m-40 -31 c-10 -15 -25 -10 -19 6 4 8 10 12 15 9 5 -3 7 -10 4 -15z m-1705 -20
c0 -16 -42 -89 -52 -89 -13 0 -10 8 17 47 13 20 22 40 19 45 -3 4 0 8 5 8 6 0
11 -5 11 -11z m1670 -4 c0 -11 -34 -44 -41 -39 -5 3 -1 13 9 24 16 18 32 25
32 15z m880 -195 c0 -11 -4 -20 -10 -20 -5 0 -10 9 -10 20 0 11 5 20 10 20 6
0 10 -9 10 -20z m-655 -127 c-8 -16 -24 -38 -35 -48 -11 -10 -17 -21 -15 -25
3 -4 -3 -7 -13 -6 -9 0 -16 -5 -14 -12 1 -8 -2 -11 -7 -8 -5 3 -11 -1 -14 -9
-3 -7 -22 -17 -42 -21 -26 -5 -33 -9 -23 -15 10 -7 9 -9 -4 -9 -10 0 -18 -5
-18 -10 0 -6 -8 -13 -17 -17 -10 -3 -37 -14 -60 -25 -32 -14 -71 -19 -153 -21
-60 -1 -110 0 -110 3 0 3 -39 5 -88 4 -62 0 -92 4 -104 14 -13 11 -21 12 -30
4 -17 -14 -128 -24 -128 -12 0 15 -27 12 -34 -2 -3 -10 -9 -8 -19 5 -11 13
-26 17 -67 14 -37 -2 -54 1 -57 11 -3 7 -17 18 -30 23 -21 8 -23 12 -13 24 10
12 80 15 438 17 l427 3 66 32 c36 17 90 52 120 77 29 24 55 43 56 42 2 -2 -4
-16 -12 -33z m-4603 -49 c96 -71 120 -74 564 -74 237 0 404 -4 420 -10 l26
-10 -28 -28 c-26 -24 -37 -27 -114 -30 -160 -5 -215 -5 -234 3 -11 5 -17 5
-14 -1 5 -8 -167 -12 -197 -4 -5 1 -14 1 -20 0 -9 -2 -72 -7 -175 -12 -51 -3
-140 12 -140 24 0 5 -9 7 -19 3 -11 -3 -22 -1 -26 5 -4 6 -15 8 -25 5 -10 -3
-21 -1 -25 5 -3 5 -17 10 -31 10 -14 0 -23 5 -21 12 1 7 -12 20 -30 28 -46 21
-51 41 -10 35 18 -3 50 -12 72 -19 22 -8 42 -12 44 -10 3 2 -10 18 -28 36 -33
32 -57 68 -45 68 3 0 29 -16 56 -36z m5229 1 c5 3 6 -1 3 -9 -9 -23 -33 -8
-26 17 5 18 7 19 10 4 2 -9 8 -15 13 -12z m-778 -140 c-7 -21 -13 -19 -13 6 0
11 4 18 10 14 5 -3 7 -12 3 -20z m67 21 c0 -2 -7 -7 -16 -10 -8 -3 -12 -2 -9
4 6 10 25 14 25 6z m660 -6 c0 -5 -2 -10 -4 -10 -3 0 -8 5 -11 10 -3 6 -1 10
4 10 6 0 11 -4 11 -10z m-770 -30 c0 -5 -4 -10 -10 -10 -5 0 -10 5 -10 10 0 6
5 10 10 10 6 0 10 -4 10 -10z m-30 -4 c0 -2 -7 -6 -15 -10 -8 -3 -15 -1 -15 4
0 6 7 10 15 10 8 0 15 -2 15 -4z m777 -18 c-3 -8 -6 -5 -6 6 -1 11 2 17 5 13
3 -3 4 -12 1 -19z m31 -29 c-2 -6 -8 -10 -13 -10 -5 0 -11 4 -13 10 -2 6 4 11
13 11 9 0 15 -5 13 -11z m-43 -29 c3 -5 1 -10 -4 -10 -6 0 -11 5 -11 10 0 6 2
10 4 10 3 0 8 -4 11 -10z m-25 -42 c0 -17 -3 -19 -9 -9 -5 7 -15 10 -22 7 -8
-4 -5 0 5 8 25 20 26 20 26 -6z m-66 -133 c-4 -8 -10 -12 -15 -9 -14 8 -10 24
6 24 9 0 12 -6 9 -15z m36 -5 c0 -5 -2 -10 -4 -10 -3 0 -8 5 -11 10 -3 6 -1
10 4 10 6 0 11 -4 11 -10z m-80 -70 c0 -5 -2 -10 -4 -10 -3 0 -8 5 -11 10 -3
6 -1 10 4 10 6 0 11 -4 11 -10z m-25 -30 c3 -5 1 -10 -4 -10 -6 0 -11 5 -11
10 0 6 2 10 4 10 3 0 8 -4 11 -10z m52 -14 c0 -11 -5 -13 -19 -5 -10 5 -18 12
-18 14 0 3 8 5 18 5 10 0 19 -7 19 -14z m-77 -21 c0 -8 -4 -15 -10 -15 -5 0
-7 7 -4 15 4 8 8 15 10 15 2 0 4 -7 4 -15z m-50 -25 c0 -5 -5 -10 -11 -10 -5
0 -7 5 -4 10 3 6 8 10 11 10 2 0 4 -4 4 -10z m-5230 -34 c0 -3 -4 -8 -10 -11
-5 -3 -10 -1 -10 4 0 6 5 11 10 11 6 0 10 -2 10 -4z m5155 -36 c8 -13 -5 -13
-25 0 -13 8 -13 10 2 10 9 0 20 -4 23 -10z m-5048 -26 c-3 -3 -12 -4 -19 -1
-8 3 -5 6 6 6 11 1 17 -2 13 -5z m4943 -14 c0 -5 -8 -10 -17 -10 -15 0 -16 2
-3 10 19 12 20 12 20 0z m-4995 -10 c-3 -5 -11 -10 -16 -10 -6 0 -7 5 -4 10 3
6 11 10 16 10 6 0 7 -4 4 -10z m85 -31 c0 -5 10 -9 23 -9 21 -1 21 -1 3 -12
-15 -8 -21 -8 -24 0 -2 7 -10 12 -18 12 -8 0 -14 7 -14 15 0 9 6 12 15 9 8 -4
15 -10 15 -15z m88 -34 c-3 -3 -9 2 -12 12 -6 14 -5 15 5 6 7 -7 10 -15 7 -18z
m2102 -5 c0 -5 -2 -10 -4 -10 -3 0 -8 5 -11 10 -3 6 -1 10 4 10 6 0 11 -4 11
-10z m2485 0 c-3 -5 -12 -7 -20 -3 -21 7 -19 13 6 13 11 0 18 -4 14 -10z
m-4475 -9 c0 -6 -4 -13 -10 -16 -5 -3 -10 1 -10 9 0 9 5 16 10 16 6 0 10 -4
10 -9z"/>
<path d="M3851 7181 c-8 -6 -9 -11 -3 -15 6 -3 14 -1 17 5 9 14 2 20 -14 10z"/>
<path d="M3805 7100 c-8 -13 -1 -24 14 -19 6 3 7 10 2 18 -6 10 -10 10 -16 1z"/>
<path d="M6460 6999 c0 -5 5 -7 10 -4 6 3 10 8 10 11 0 2 -4 4 -10 4 -5 0 -10
-5 -10 -11z"/>
<path d="M6520 6919 c0 -5 5 -7 10 -4 6 3 10 8 10 11 0 2 -4 4 -10 4 -5 0 -10
-5 -10 -11z"/>
<path d="M6640 6790 c0 -5 5 -10 10 -10 6 0 10 5 10 10 0 6 -4 10 -10 10 -5 0
-10 -4 -10 -10z"/>
<path d="M3040 7129 c0 -5 5 -7 10 -4 6 3 10 8 10 11 0 2 -4 4 -10 4 -5 0 -10
-5 -10 -11z"/>
<path d="M7320 5610 c0 -5 5 -10 10 -10 6 0 10 5 10 10 0 6 -4 10 -10 10 -5 0
-10 -4 -10 -10z"/>
<path d="M3455 5760 c-3 -5 1 -10 10 -10 9 0 13 5 10 10 -3 6 -8 10 -10 10 -2
0 -7 -4 -10 -10z"/>
<path d="M3395 5690 c-3 -6 -11 -8 -16 -5 -5 4 -9 1 -9 -4 0 -14 13 -14 28 1
9 9 12 8 12 -5 0 -9 -4 -17 -10 -17 -5 0 -10 -8 -10 -17 0 -14 2 -15 9 -4 5 7
13 11 18 8 5 -3 9 3 10 13 2 23 -22 46 -32 30z"/>
<path d="M3350 5641 c0 -5 7 -12 16 -15 14 -5 15 -4 4 9 -14 17 -20 19 -20 6z"/>
<path d="M3325 5600 c3 -5 14 -10 23 -10 15 0 15 2 2 10 -20 13 -33 13 -25 0z"/>
<path d="M6590 5899 c0 -5 5 -7 10 -4 6 3 10 8 10 11 0 2 -4 4 -10 4 -5 0 -10
-5 -10 -11z"/>
<path d="M6685 5740 c-3 -5 -1 -10 4 -10 6 0 11 5 11 10 0 6 -2 10 -4 10 -3 0
-8 -4 -11 -10z"/>
<path d="M6822 5630 c0 -14 2 -19 5 -12 2 6 2 18 0 25 -3 6 -5 1 -5 -13z"/>
<path d="M6840 5610 c0 -5 5 -10 10 -10 6 0 10 5 10 10 0 6 -4 10 -10 10 -5 0
-10 -4 -10 -10z"/>
<path d="M6643 5403 c-17 -6 -16 -28 1 -42 11 -9 13 -5 12 19 -1 16 -1 30 -1
29 0 0 -6 -3 -12 -6z"/>
<path d="M3587 5374 c-14 -14 -7 -24 17 -22 14 1 22 6 20 10 -3 5 -9 6 -14 3
-4 -3 -10 0 -12 6 -2 5 -7 7 -11 3z"/>
<path d="M6525 5360 c-4 -6 1 -7 11 -3 10 4 15 2 11 -3 -3 -6 4 -11 16 -11 21
-2 22 -1 3 13 -23 17 -33 18 -41 4z"/>
<path d="M3548 5353 c7 -3 16 -2 19 1 4 3 -2 6 -13 5 -11 0 -14 -3 -6 -6z"/>
<path d="M3694 5334 c3 -9 6 -18 6 -20 0 -2 4 -4 9 -4 6 0 9 9 8 20 -1 11 -8
20 -15 20 -9 0 -12 -6 -8 -16z"/>
<path d="M3730 5336 c0 -2 7 -7 16 -10 8 -3 12 -2 9 4 -6 10 -25 14 -25 6z"/>
<path d="M6470 5305 c-11 -13 -10 -14 4 -9 9 3 16 10 16 15 0 13 -6 11 -20 -6z"/>
<path d="M4219 5101 c-21 -21 -29 -39 -29 -63 0 -43 9 -53 92 -111 36 -26 117
-100 178 -166 122 -129 153 -151 192 -130 56 30 64 85 19 145 -32 43 -289 298
-335 332 -41 31 -81 28 -117 -7z"/>
<path d="M5895 5098 c-79 -64 -288 -274 -316 -317 -55 -85 -28 -157 55 -152
10 0 78 62 150 137 81 85 151 148 183 166 66 37 93 71 93 115 0 82 -92 110
-165 51z"/>
<path d="M3975 4860 c3 -5 8 -10 11 -10 2 0 4 5 4 10 0 6 -5 10 -11 10 -5 0
-7 -4 -4 -10z"/>
<path d="M4105 4749 c-11 -17 1 -21 15 -4 8 9 8 15 2 15 -6 0 -14 -5 -17 -11z"/>
<path d="M6010 4680 c0 -5 5 -10 10 -10 6 0 10 5 10 10 0 6 -4 10 -10 10 -5 0
-10 -4 -10 -10z"/>
<path d="M4245 4649 c-4 -6 -5 -12 -2 -15 2 -3 7 2 10 11 7 17 1 20 -8 4z"/>
<path d="M5950 4628 c0 -9 5 -20 10 -23 13 -8 13 5 0 25 -8 13 -10 13 -10 -2z"/>
<path d="M5830 4516 c0 -2 7 -6 15 -10 8 -3 15 -1 15 4 0 6 -7 10 -15 10 -8 0
-15 -2 -15 -4z"/>
<path d="M5810 4480 c0 -5 5 -10 11 -10 5 0 7 5 4 10 -3 6 -8 10 -11 10 -2 0
-4 -4 -4 -10z"/>
<path d="M4420 4449 c0 -5 5 -7 10 -4 6 3 10 8 10 11 0 2 -4 4 -10 4 -5 0 -10
-5 -10 -11z"/>
<path d="M4770 4410 c-34 -34 -25 -72 49 -208 78 -145 171 -344 226 -482 43
-111 54 -125 88 -116 20 5 31 23 60 93 98 247 154 367 252 545 27 48 45 93 45
112 0 43 -35 76 -81 76 -43 0 -69 -25 -128 -125 -44 -73 -141 -269 -141 -285
0 -39 -30 2 -100 137 -84 162 -131 239 -158 261 -25 19 -89 15 -112 -8z"/>
<path d="M5606 4182 c-2 -4 4 -8 14 -8 10 0 16 4 14 8 -3 4 -9 8 -14 8 -5 0
-11 -4 -14 -8z"/>
<path d="M5534 4093 c-4 -16 -11 -34 -17 -41 -7 -9 -6 -11 7 -6 9 3 16 11 17
18 0 6 2 21 5 34 6 32 -4 27 -12 -5z"/>
<path d="M4698 4093 c7 -3 16 -2 19 1 4 3 -2 6 -13 5 -11 0 -14 -3 -6 -6z"/>
<path d="M5480 4009 c0 -5 5 -7 10 -4 6 3 10 8 10 11 0 2 -4 4 -10 4 -5 0 -10
-5 -10 -11z"/>
<path d="M4735 3980 c-3 -5 -1 -10 4 -10 6 0 11 5 11 10 0 6 -2 10 -4 10 -3 0
-8 -4 -11 -10z"/>
<path d="M5430 3920 c0 -6 7 -10 15 -10 8 0 15 2 15 4 0 2 -7 6 -15 10 -8 3
-15 1 -15 -4z"/>
<path d="M5410 3890 c0 -5 5 -10 11 -10 5 0 7 5 4 10 -3 6 -8 10 -11 10 -2 0
-4 -4 -4 -10z"/>
<path d="M5385 3850 c-3 -5 -1 -10 4 -10 6 0 11 5 11 10 0 6 -2 10 -4 10 -3 0
-8 -4 -11 -10z"/>
<path d="M4856 3815 c10 -8 26 -14 34 -15 8 0 2 7 -14 15 -36 19 -45 19 -20 0z"/>
<path d="M4870 3775 c-10 -12 -10 -15 4 -15 9 0 16 7 16 15 0 8 -2 15 -4 15
-2 0 -9 -7 -16 -15z"/>
<path d="M5340 3749 c0 -5 5 -7 10 -4 6 3 10 8 10 11 0 2 -4 4 -10 4 -5 0 -10
-5 -10 -11z"/>
<path d="M4923 3723 c4 -3 2 -12 -5 -20 -8 -11 -7 -12 6 -7 9 3 16 1 16 -5 0
-6 4 -11 9 -11 5 0 4 11 -2 25 -7 14 -16 25 -21 25 -5 0 -6 -3 -3 -7z"/>
<path d="M5325 3700 c3 -5 8 -10 11 -10 2 0 4 5 4 10 0 6 -5 10 -11 10 -5 0
-7 -4 -4 -10z"/>
<path d="M4930 3660 c0 -5 5 -10 11 -10 5 0 7 5 4 10 -3 6 -8 10 -11 10 -2 0
-4 -4 -4 -10z"/>
<path d="M4964 3595 c-4 -14 -4 -29 0 -32 3 -4 6 4 6 16 0 16 4 21 14 18 10
-4 13 -1 9 9 -8 22 -22 17 -29 -11z"/>
<path d="M5300 3610 c0 -5 5 -10 10 -10 6 0 10 5 10 10 0 6 -4 10 -10 10 -5 0
-10 -4 -10 -10z"/>
<path d="M5280 3570 c0 -5 5 -10 10 -10 6 0 10 5 10 10 0 6 -4 10 -10 10 -5 0
-10 -4 -10 -10z"/>
<path d="M4983 3555 c-9 -24 1 -27 15 -5 8 13 8 20 2 20 -6 0 -13 -7 -17 -15z"/>
<path d="M5240 3560 c0 -5 5 -10 10 -10 6 0 10 5 10 10 0 6 -4 10 -10 10 -5 0
-10 -4 -10 -10z"/>
<path d="M5003 3523 c-18 -7 -16 -23 2 -23 8 0 15 7 15 15 0 8 -1 15 -2 14 -2
0 -9 -3 -15 -6z"/>
<path d="M5225 3519 c-10 -15 3 -25 16 -12 7 7 7 13 1 17 -6 3 -14 1 -17 -5z"/>
<path d="M5030 3483 c0 -12 7 -19 20 -19 11 0 20 7 20 15 0 8 -3 11 -7 8 -3
-4 -12 -2 -20 4 -10 9 -13 7 -13 -8z"/>
<path d="M5255 3490 c3 -5 8 -10 11 -10 2 0 4 5 4 10 0 6 -5 10 -11 10 -5 0
-7 -4 -4 -10z"/>
<path d="M5175 3480 c-3 -5 1 -10 9 -10 9 0 16 5 16 10 0 6 -4 10 -9 10 -6 0
-13 -4 -16 -10z"/>
<path d="M5210 3480 c0 -5 5 -10 11 -10 5 0 7 5 4 10 -3 6 -8 10 -11 10 -2 0
-4 -4 -4 -10z"/>
<path d="M5149 3466 c-1 -3 -2 -10 -3 -15 0 -5 -4 -13 -8 -17 -5 -4 -8 -11 -8
-16 0 -17 15 -7 27 17 6 14 7 27 2 31 -5 3 -10 3 -10 0z"/>
<path d="M5225 3449 c-10 -15 3 -25 16 -12 7 7 7 13 1 17 -6 3 -14 1 -17 -5z"/>
<path d="M5000 3434 c0 -8 5 -12 10 -9 6 4 8 11 5 16 -9 14 -15 11 -15 -7z"/>
<path d="M5182 3438 c-14 -14 -16 -28 -3 -28 5 0 11 9 14 20 6 23 5 24 -11 8z"/>
<path d="M5045 3430 c-3 -5 1 -10 9 -10 8 0 18 5 21 10 3 6 -1 10 -9 10 -8 0
-18 -4 -21 -10z"/>
<path d="M5095 3430 c-3 -5 1 -10 10 -10 9 0 13 5 10 10 -3 6 -8 10 -10 10 -2
0 -7 -4 -10 -10z"/>
<path d="M5040 3400 c0 -5 5 -10 10 -10 6 0 10 5 10 10 0 6 -4 10 -10 10 -5 0
-10 -4 -10 -10z"/>
<path d="M5083 3393 c9 -2 15 -9 12 -14 -4 -5 -1 -9 4 -9 6 0 11 7 11 15 0 9
-9 15 -22 14 -18 -1 -19 -2 -5 -6z"/>
<path d="M5137 3386 c-4 -10 -1 -13 9 -9 15 6 19 23 5 23 -5 0 -11 -7 -14 -14z"/>
<path d="M5185 3390 c-3 -5 1 -10 9 -10 9 0 16 5 16 10 0 6 -4 10 -9 10 -6 0
-13 -4 -16 -10z"/>
<path d="M5066 3371 c-5 -7 -4 -16 1 -20 5 -3 13 -15 17 -25 5 -15 9 -17 18
-8 9 9 8 15 -4 24 -9 7 -18 20 -20 28 -3 11 -6 11 -12 1z"/>
<path d="M5030 3360 c0 -5 5 -10 11 -10 5 0 7 5 4 10 -3 6 -8 10 -11 10 -2 0
-4 -4 -4 -10z"/>
<path d="M5165 3360 c4 -6 11 -8 16 -5 14 9 11 15 -7 15 -8 0 -12 -5 -9 -10z"/>
<path d="M5205 3360 c-3 -5 -1 -10 4 -10 6 0 11 5 11 10 0 6 -2 10 -4 10 -3 0
-8 -4 -11 -10z"/>
<path d="M5135 3340 c-3 -5 1 -10 9 -10 9 0 16 5 16 10 0 6 -4 10 -9 10 -6 0
-13 -4 -16 -10z"/>
<path d="M5176 3309 c-11 -10 -15 -19 -10 -19 12 1 44 25 44 34 0 11 -15 5
-34 -15z"/>
<path d="M5060 3306 c0 -4 6 -14 14 -21 14 -14 26 -10 26 8 0 6 -3 7 -7 4 -3
-4 -12 -2 -20 4 -7 6 -13 8 -13 5z"/>
<path d="M5115 3290 c-3 -5 1 -10 9 -10 9 0 16 5 16 10 0 6 -4 10 -9 10 -6 0
-13 -4 -16 -10z"/>
<path d="M5163 3273 c-15 -5 -18 -33 -4 -33 5 0 11 9 14 20 3 11 4 20 4 19 -1
0 -8 -3 -14 -6z"/>
<path d="M5060 3251 c0 -6 5 -13 10 -16 6 -3 10 1 10 9 0 9 -4 16 -10 16 -5 0
-10 -4 -10 -9z"/>
<path d="M5090 3225 c-10 -12 -10 -15 3 -15 19 0 31 16 18 24 -5 3 -14 -1 -21
-9z"/>
<path d="M5130 3230 c0 -5 5 -10 10 -10 6 0 10 5 10 10 0 6 -4 10 -10 10 -5 0
-10 -4 -10 -10z"/>
<path d="M5119 3189 c-9 -17 -8 -25 6 -38 16 -15 17 -14 10 6 -5 19 -3 22 12
17 14 -4 15 -4 4 4 -7 5 -10 15 -7 21 4 6 3 11 -3 11 -6 0 -15 -10 -22 -21z"/>
<path d="M3840 4479 c0 -5 5 -7 10 -4 6 3 10 8 10 11 0 2 -4 4 -10 4 -5 0 -10
-5 -10 -11z"/>
<path d="M6340 4465 c-10 -12 -10 -15 4 -15 9 0 16 7 16 15 0 8 -2 15 -4 15
-2 0 -9 -7 -16 -15z"/>
<path d="M3435 4020 c-3 -5 -1 -10 4 -10 6 0 11 5 11 10 0 6 -2 10 -4 10 -3 0
-8 -4 -11 -10z"/>
<path d="M3480 3980 c0 -5 7 -10 16 -10 8 0 12 5 9 10 -3 6 -10 10 -16 10 -5
0 -9 -4 -9 -10z"/>
<path d="M3580 3886 c0 -2 7 -7 16 -10 8 -3 12 -2 9 4 -6 10 -25 14 -25 6z"/>
<path d="M3825 3630 c-3 -5 -1 -10 4 -10 6 0 11 5 11 10 0 6 -2 10 -4 10 -3 0
-8 -4 -11 -10z"/>
<path d="M4077 3231 c-3 -14 -1 -18 9 -14 16 6 18 19 5 27 -5 3 -11 -3 -14
-13z"/>
<path d="M4141 3124 c0 -11 3 -14 6 -6 3 7 2 16 -1 19 -3 4 -6 -2 -5 -13z"/>
<path d="M4165 3070 c-3 -5 1 -10 10 -10 9 0 13 5 10 10 -3 6 -8 10 -10 10 -2
0 -7 -4 -10 -10z"/>
<path d="M4175 3030 c3 -5 8 -10 11 -10 2 0 4 5 4 10 0 6 -5 10 -11 10 -5 0
-7 -4 -4 -10z"/>
<path d="M4225 3009 c-4 -6 -12 -8 -19 -6 -6 3 -12 -4 -12 -14 0 -17 2 -17 23
3 13 12 23 23 23 25 0 7 -9 2 -15 -8z"/>
<path d="M4210 2961 c0 -5 7 -11 14 -14 10 -4 13 -1 9 9 -6 15 -23 19 -23 5z"/>
<path d="M4185 2941 c-3 -5 -1 -12 5 -16 5 -3 10 1 10 9 0 18 -6 21 -15 7z"/>
<path d="M4242 2901 c1 -23 4 -26 13 -17 9 7 10 17 4 29 -14 24 -18 21 -17
-12z"/>
<path d="M4275 2860 c3 -5 11 -10 16 -10 6 0 7 5 4 10 -3 6 -11 10 -16 10 -6
0 -7 -4 -4 -10z"/>
<path d="M4310 2860 c0 -5 5 -10 11 -10 5 0 7 5 4 10 -3 6 -8 10 -11 10 -2 0
-4 -4 -4 -10z"/>
<path d="M4239 2851 c7 -5 11 -13 8 -18 -3 -5 7 -14 24 -20 23 -9 29 -9 29 2
0 17 -38 45 -60 45 -12 0 -13 -2 -1 -9z"/>
<path d="M4316 2814 c-11 -29 -6 -53 14 -64 20 -11 30 3 10 15 -6 4 -8 10 -5
15 3 5 0 12 -6 16 -8 5 -8 9 1 14 8 5 8 10 2 14 -5 3 -13 -1 -16 -10z"/>
<path d="M4262 2780 c7 -11 19 -20 27 -20 11 0 10 5 -4 20 -10 11 -22 20 -27
20 -4 0 -3 -9 4 -20z"/>
<path d="M4390 2761 c-8 -6 -18 -7 -24 -4 -5 3 -6 1 -2 -5 5 -9 13 -9 27 -2
10 6 19 13 19 15 0 7 -3 6 -20 -4z"/>
<path d="M4294 2724 c-18 -15 -18 -15 4 -9 13 4 22 2 22 -4 0 -6 -4 -11 -10
-11 -5 0 -10 -4 -10 -10 0 -5 7 -7 16 -3 13 5 15 2 9 -16 -5 -17 -1 -28 14
-42 12 -11 26 -17 31 -14 16 10 11 23 -11 30 -13 4 -18 12 -15 22 3 8 3 20 -1
26 -8 12 -9 17 -12 37 -2 14 -14 12 -37 -6z"/>
<path d="M4390 2721 c0 -5 5 -13 10 -16 6 -3 10 -2 10 4 0 5 -4 13 -10 16 -5
3 -10 2 -10 -4z"/>
<path d="M4357 2703 c3 -7 9 -10 14 -7 14 8 11 21 -5 21 -8 0 -12 -6 -9 -14z"/>
<path d="M4367 2667 c-4 -11 0 -13 14 -10 12 4 19 0 19 -10 0 -8 7 -20 15 -27
9 -7 13 -20 10 -29 -4 -12 -3 -13 5 -5 12 12 3 44 -12 44 -5 0 -6 9 -3 20 3
11 2 20 -4 20 -5 0 -16 3 -24 6 -8 3 -17 -1 -20 -9z"/>
<path d="M4440 2669 c0 -5 5 -7 10 -4 6 3 10 8 10 11 0 2 -4 4 -10 4 -5 0 -10
-5 -10 -11z"/>
<path d="M4486 2645 c4 -8 10 -15 15 -15 4 0 6 7 3 15 -4 8 -10 15 -15 15 -4
0 -6 -7 -3 -15z"/>
<path d="M4446 2635 c4 -8 10 -12 15 -9 11 6 2 24 -11 24 -5 0 -7 -7 -4 -15z"/>
<path d="M4375 2610 c-3 -5 -3 -10 2 -10 4 0 1 -5 -7 -10 -13 -8 -12 -10 3
-10 9 0 17 2 17 4 0 2 3 11 6 20 7 17 -11 22 -21 6z"/>
<path d="M6400 3650 c-9 -6 -10 -10 -3 -10 6 0 15 5 18 10 8 12 4 12 -15 0z"/>
<path d="M6380 3620 c0 -5 5 -10 11 -10 5 0 7 5 4 10 -3 6 -8 10 -11 10 -2 0
-4 -4 -4 -10z"/>
<path d="M6327 3563 c-12 -11 -7 -19 12 -19 11 0 17 5 14 13 -6 14 -16 17 -26
6z"/>
<path d="M6245 3450 c-3 -5 -1 -10 4 -10 6 0 11 5 11 10 0 6 -2 10 -4 10 -3 0
-8 -4 -11 -10z"/>
<path d="M6220 3326 c0 -8 -6 -17 -12 -19 -8 -4 -7 -6 3 -6 9 -1 19 8 22 19 3
11 1 20 -4 20 -5 0 -9 -6 -9 -14z"/>
<path d="M6205 3270 c-3 -5 -1 -10 4 -10 6 0 11 5 11 10 0 6 -2 10 -4 10 -3 0
-8 -4 -11 -10z"/>
<path d="M6154 3211 c1 -31 12 -29 18 3 1 10 -2 21 -8 23 -7 2 -11 -8 -10 -26z"/>
<path d="M6110 3191 c0 -6 4 -13 10 -16 6 -3 7 1 4 9 -7 18 -14 21 -14 7z"/>
<path d="M6085 3160 c-3 -5 1 -10 9 -10 9 0 16 5 16 10 0 6 -4 10 -9 10 -6 0
-13 -4 -16 -10z"/>
<path d="M6091 3114 c0 -11 3 -14 6 -6 3 7 2 16 -1 19 -3 4 -6 -2 -5 -13z"/>
<path d="M6060 3096 c0 -31 6 -34 13 -6 3 11 1 23 -4 26 -5 3 -9 -6 -9 -20z"/>
<path d="M6098 3073 c7 -3 16 -2 19 1 4 3 -2 6 -13 5 -11 0 -14 -3 -6 -6z"/>
<path d="M6048 3048 c5 -5 16 -8 23 -6 8 3 3 7 -10 11 -17 4 -21 3 -13 -5z"/>
<path d="M6015 3030 c3 -5 8 -10 11 -10 2 0 4 5 4 10 0 6 -5 10 -11 10 -5 0
-7 -4 -4 -10z"/>
<path d="M5980 2980 c-9 -6 -10 -10 -3 -10 6 0 15 5 18 10 8 12 4 12 -15 0z"/>
<path d="M6035 2980 c-3 -5 -1 -10 4 -10 6 0 11 5 11 10 0 6 -2 10 -4 10 -3 0
-8 -4 -11 -10z"/>
<path d="M6006 2962 c-9 -27 -5 -34 10 -24 7 4 8 16 4 27 -7 19 -7 19 -14 -3z"/>
<path d="M6010 2905 c-10 -12 -10 -15 4 -15 9 0 16 7 16 15 0 8 -2 15 -4 15
-2 0 -9 -7 -16 -15z"/>
<path d="M5939 2884 c-1 -5 -1 -17 0 -26 2 -12 -3 -16 -13 -12 -9 3 -16 1 -16
-5 0 -6 7 -11 16 -11 10 0 13 -6 10 -17 -3 -10 -1 -25 4 -33 7 -11 10 -3 10
28 0 26 4 41 10 37 16 -10 12 21 -5 35 -8 7 -16 9 -16 4z"/>
<path d="M5992 2820 c0 -14 2 -19 5 -12 2 6 2 18 0 25 -3 6 -5 1 -5 -13z"/>
<path d="M5902 2801 c-10 -6 -10 -10 3 -21 13 -11 15 -9 15 9 0 24 0 24 -18
12z"/>
<path d="M5960 2760 c0 -5 5 -10 11 -10 5 0 7 5 4 10 -3 6 -8 10 -11 10 -2 0
-4 -4 -4 -10z"/>
<path d="M5896 2744 c-9 -23 -7 -31 4 -14 7 11 12 12 21 3 8 -8 3 -13 -20 -18
-22 -5 -31 -12 -31 -26 0 -22 10 -24 29 -6 11 10 12 8 3 -9 -9 -16 -8 -26 3
-40 7 -10 17 -16 21 -11 4 4 2 7 -4 7 -16 0 -15 22 3 56 21 41 19 74 -4 74
-10 0 -22 -7 -25 -16z"/>
<path d="M5827 2700 c-4 -15 0 -20 13 -20 13 0 17 5 13 20 -3 11 -9 20 -13 20
-4 0 -10 -9 -13 -20z"/>
<path d="M5925 2670 c-3 -5 -2 -10 4 -10 5 0 13 5 16 10 3 6 2 10 -4 10 -5 0
-13 -4 -16 -10z"/>
<path d="M5816 2662 c-3 -5 1 -15 9 -22 16 -14 20 -3 6 19 -5 8 -11 9 -15 3z"/>
<path d="M5780 2649 c0 -5 5 -7 10 -4 6 3 10 8 10 11 0 2 -4 4 -10 4 -5 0 -10
-5 -10 -11z"/>
<path d="M5866 2635 c4 -8 1 -15 -5 -15 -13 0 -14 -10 -2 -29 7 -11 13 -11 32
3 l24 17 -30 -7 c-29 -7 -30 -7 -12 13 21 24 22 33 2 33 -9 0 -12 -6 -9 -15z"/>
<path d="M5735 2620 c3 -5 8 -10 11 -10 2 0 4 5 4 10 0 6 -5 10 -11 10 -5 0
-7 -4 -4 -10z"/>
<path d="M4780 3134 c0 -8 5 -12 10 -9 6 4 8 11 5 16 -9 14 -15 11 -15 -7z"/>
<path d="M3090 3246 c0 -7 9 -16 20 -19 14 -4 18 -10 13 -22 -4 -13 -2 -16 8
-13 21 7 17 31 -8 44 -13 6 -20 14 -16 17 3 4 1 7 -5 7 -7 0 -12 -6 -12 -14z"/>
<path d="M3090 3209 c0 -5 5 -7 10 -4 6 3 10 8 10 11 0 2 -4 4 -10 4 -5 0 -10
-5 -10 -11z"/>
<path d="M3150 3180 c0 -13 28 -25 38 -16 3 4 0 11 -8 16 -20 13 -30 12 -30 0z"/>
<path d="M3194 3156 c-11 -9 -13 -15 -6 -20 6 -3 16 2 22 11 10 15 11 14 7 -9
-3 -19 0 -28 9 -28 18 0 18 46 0 53 -8 3 -22 0 -32 -7z"/>
<path d="M3260 3121 c0 -6 5 -13 10 -16 6 -3 10 1 10 9 0 9 -4 16 -10 16 -5 0
-10 -4 -10 -9z"/>
<path d="M7252 3370 c-12 -10 -19 -20 -15 -22 5 -3 19 6 32 19 29 28 16 30
-17 3z"/>
<path d="M7060 3170 c0 -5 5 -10 10 -10 6 0 10 5 10 10 0 6 -4 10 -10 10 -5 0
-10 -4 -10 -10z"/>
<path d="M7195 2790 c-3 -5 1 -10 9 -10 9 0 16 5 16 10 0 6 -4 10 -9 10 -6 0
-13 -4 -16 -10z"/>
<path d="M4160 7571 c0 -6 4 -13 10 -16 6 -3 7 1 4 9 -7 18 -14 21 -14 7z"/>
<path d="M7080 7529 c0 -5 5 -7 10 -4 6 3 10 8 10 11 0 2 -4 4 -10 4 -5 0 -10
-5 -10 -11z"/>
<path d="M7275 7520 c-3 -5 -1 -10 4 -10 6 0 11 5 11 10 0 6 -2 10 -4 10 -3 0
-8 -4 -11 -10z"/>
<path d="M7310 7509 c0 -5 5 -7 10 -4 6 3 10 8 10 11 0 2 -4 4 -10 4 -5 0 -10
-5 -10 -11z"/>
<path d="M3590 7309 c0 -5 5 -7 10 -4 6 3 10 8 10 11 0 2 -4 4 -10 4 -5 0 -10
-5 -10 -11z"/>
<path d="M3111 6634 c0 -11 3 -14 6 -6 3 7 2 16 -1 19 -3 4 -6 -2 -5 -13z"/>
<path d="M7170 6620 c0 -5 4 -10 9 -10 6 0 13 5 16 10 3 6 -1 10 -9 10 -9 0
-16 -4 -16 -10z"/>
<path d="M7230 6620 c0 -5 5 -10 11 -10 5 0 7 5 4 10 -3 6 -8 10 -11 10 -2 0
-4 -4 -4 -10z"/>
<path d="M8255 6620 c-8 -13 5 -13 25 0 13 8 13 10 -2 10 -9 0 -20 -4 -23 -10z"/>
<path d="M7106 6603 c-6 -14 -5 -15 5 -6 7 7 10 15 7 18 -3 3 -9 -2 -12 -12z"/>
<path d="M8265 6590 c3 -6 -2 -21 -13 -35 -15 -19 -22 -21 -31 -12 -10 9 -11
6 -5 -18 9 -40 13 -45 30 -45 12 0 12 4 4 20 -9 16 -7 26 10 49 22 32 26 51 9
51 -5 0 -7 -5 -4 -10z"/>
<path d="M3120 6580 c0 -5 5 -10 10 -10 6 0 10 5 10 10 0 6 -4 10 -10 10 -5 0
-10 -4 -10 -10z"/>
<path d="M7176 6581 c-4 -7 -5 -15 -2 -18 9 -9 19 4 14 18 -4 11 -6 11 -12 0z"/>
<path d="M3000 6565 c0 -8 2 -15 4 -15 2 0 6 7 10 15 3 8 1 15 -4 15 -6 0 -10
-7 -10 -15z"/>
<path d="M8340 6570 c0 -5 5 -10 10 -10 6 0 10 5 10 10 0 6 -4 10 -10 10 -5 0
-10 -4 -10 -10z"/>
<path d="M7265 6560 c3 -5 8 -10 11 -10 2 0 4 5 4 10 0 6 -5 10 -11 10 -5 0
-7 -4 -4 -10z"/>
<path d="M3090 6550 c0 -5 5 -10 10 -10 6 0 10 5 10 10 0 6 -4 10 -10 10 -5 0
-10 -4 -10 -10z"/>
<path d="M3020 6529 c0 -5 5 -7 10 -4 6 3 10 8 10 11 0 2 -4 4 -10 4 -5 0 -10
-5 -10 -11z"/>
<path d="M7235 6530 c4 -6 11 -8 16 -5 14 9 11 15 -7 15 -8 0 -12 -5 -9 -10z"/>
<path d="M7310 6530 c0 -5 5 -10 10 -10 6 0 10 5 10 10 0 6 -4 10 -10 10 -5 0
-10 -4 -10 -10z"/>
<path d="M8190 6521 c0 -6 -6 -8 -14 -5 -7 3 -16 -2 -20 -12 -4 -11 -2 -15 8
-11 8 3 17 -1 20 -9 3 -8 1 -12 -4 -9 -6 3 -7 -1 -4 -9 3 -9 10 -16 14 -16 14
0 21 32 10 45 -8 9 -7 14 2 17 9 3 9 6 0 12 -7 4 -12 3 -12 -3z"/>
<path d="M8216 6461 c-4 -7 -5 -15 -2 -18 9 -9 19 4 14 18 -4 11 -6 11 -12 0z"/>
<path d="M7720 6430 c0 -5 5 -10 10 -10 6 0 10 5 10 10 0 6 -4 10 -10 10 -5 0
-10 -4 -10 -10z"/>
<path d="M8240 6414 c0 -9 -10 -24 -22 -34 -13 -10 -19 -22 -15 -27 5 -4 14 0
21 9 7 10 15 16 18 13 2 -3 5 1 5 8 0 6 4 20 8 30 4 10 3 17 -4 17 -6 0 -11
-7 -11 -16z"/>
<path d="M8183 6376 c-12 -14 -14 -56 -3 -56 3 0 12 5 20 10 12 7 12 10 1 10
-9 0 -11 8 -7 25 7 28 6 30 -11 11z"/>
<path d="M8236 6352 c-3 -6 -1 -14 5 -17 14 -9 20 -2 10 14 -6 8 -11 9 -15 3z"/>
<path d="M8220 6273 c-21 -8 -28 -22 -22 -45 4 -17 7 -16 20 11 8 17 18 28 23
25 5 -3 9 0 9 5 0 12 -7 13 -30 4z"/>
<path d="M8175 6220 c3 -5 8 -10 11 -10 2 0 4 5 4 10 0 6 -5 10 -11 10 -5 0
-7 -4 -4 -10z"/>
<path d="M7690 6200 c0 -5 5 -10 10 -10 6 0 10 5 10 10 0 6 -4 10 -10 10 -5 0
-10 -4 -10 -10z"/>
<path d="M8220 6195 c0 -8 4 -15 10 -15 5 0 7 7 4 15 -4 8 -8 15 -10 15 -2 0
-4 -7 -4 -15z"/>
<path d="M8170 6170 c0 -5 5 -10 10 -10 6 0 10 5 10 10 0 6 -4 10 -10 10 -5 0
-10 -4 -10 -10z"/>
<path d="M8145 6149 c-5 -7 -3 -10 6 -7 8 3 22 1 32 -4 11 -5 17 -5 17 2 0 5
-4 10 -9 10 -5 0 -16 3 -24 6 -8 3 -18 0 -22 -7z"/>
<path d="M8210 6150 c0 -5 5 -10 10 -10 6 0 10 5 10 10 0 6 -4 10 -10 10 -5 0
-10 -4 -10 -10z"/>
<path d="M8205 6110 c-3 -5 -2 -10 4 -10 5 0 13 5 16 10 3 6 2 10 -4 10 -5 0
-13 -4 -16 -10z"/>
<path d="M7751 6084 c0 -11 3 -14 6 -6 3 7 2 16 -1 19 -3 4 -6 -2 -5 -13z"/>
<path d="M8169 6100 c-6 -33 -4 -47 8 -43 7 3 13 8 13 12 0 8 -19 37 -21 31z"/>
<path d="M8210 6051 c0 -5 5 -13 10 -16 6 -3 10 -2 10 4 0 5 -4 13 -10 16 -5
3 -10 2 -10 -4z"/>
<path d="M8171 5934 c-12 -14 -11 -16 4 -12 10 1 20 9 23 16 5 17 -10 15 -27
-4z"/>
<path d="M8150 5895 c0 -8 4 -15 10 -15 5 0 7 7 4 15 -4 8 -8 15 -10 15 -2 0
-4 -7 -4 -15z"/>
<path d="M8185 5890 c3 -5 8 -10 11 -10 2 0 4 5 4 10 0 6 -5 10 -11 10 -5 0
-7 -4 -4 -10z"/>
<path d="M8155 5850 c3 -5 8 -10 11 -10 2 0 4 5 4 10 0 6 -5 10 -11 10 -5 0
-7 -4 -4 -10z"/>
<path d="M8210 5808 c0 -4 4 -8 9 -8 6 0 12 4 15 8 3 5 -1 9 -9 9 -8 0 -15 -4
-15 -9z"/>
<path d="M8125 5790 c3 -5 8 -10 11 -10 2 0 4 5 4 10 0 6 -5 10 -11 10 -5 0
-7 -4 -4 -10z"/>
<path d="M8165 5790 c3 -5 10 -10 16 -10 5 0 9 5 9 10 0 6 -7 10 -16 10 -8 0
-12 -4 -9 -10z"/>
<path d="M8150 5769 c0 -5 5 -7 10 -4 6 3 10 8 10 11 0 2 -4 4 -10 4 -5 0 -10
-5 -10 -11z"/>
<path d="M8200 5770 c0 -5 5 -10 10 -10 6 0 10 5 10 10 0 6 -4 10 -10 10 -5 0
-10 -4 -10 -10z"/>
<path d="M8125 5760 c3 -5 8 -10 11 -10 2 0 4 5 4 10 0 6 -5 10 -11 10 -5 0
-7 -4 -4 -10z"/>
<path d="M8180 5758 c0 -9 -6 -19 -12 -21 -7 -3 -8 -6 -3 -6 6 0 17 4 25 9 12
7 12 12 2 22 -9 9 -12 9 -12 -4z"/>
<path d="M8171 5694 c0 -11 3 -14 6 -6 3 7 2 16 -1 19 -3 4 -6 -2 -5 -13z"/>
<path d="M8120 5670 c0 -5 4 -10 9 -10 6 0 13 5 16 10 3 6 -1 10 -9 10 -9 0
-16 -4 -16 -10z"/>
<path d="M8200 5660 c-9 -6 -10 -10 -3 -10 6 0 15 5 18 10 8 12 4 12 -15 0z"/>
<path d="M8150 5625 c0 -8 -4 -15 -10 -15 -5 0 -10 -6 -10 -12 1 -7 9 -3 20
10 11 13 24 21 30 17 5 -3 10 -1 10 4 0 6 -9 11 -20 11 -11 0 -20 -7 -20 -15z"/>
<path d="M8200 5609 c0 -5 5 -7 10 -4 6 3 10 8 10 11 0 2 -4 4 -10 4 -5 0 -10
-5 -10 -11z"/>
<path d="M8135 5560 c-3 -5 -1 -10 4 -10 6 0 11 5 11 10 0 6 -2 10 -4 10 -3 0
-8 -4 -11 -10z"/>
<path d="M8136 5514 c-11 -8 -16 -14 -10 -14 13 0 39 18 34 24 -3 2 -14 -2
-24 -10z"/>
<path d="M8230 5495 c0 -14 2 -25 4 -25 2 0 6 11 8 25 3 14 1 25 -3 25 -5 0
-9 -11 -9 -25z"/>
<path d="M8196 5494 c-4 -9 -4 -19 -1 -22 2 -3 7 3 11 12 4 9 4 19 1 22 -2 3
-7 -3 -11 -12z"/>
<path d="M8150 5446 c0 -9 5 -16 10 -16 6 0 10 4 10 9 0 6 -4 13 -10 16 -5 3
-10 -1 -10 -9z"/>
<path d="M8162 5409 c2 -7 10 -15 17 -17 8 -3 12 1 9 9 -2 7 -10 15 -17 17 -8
3 -12 -1 -9 -9z"/>
<path d="M8137 5384 c-7 -8 3 -34 13 -34 9 0 8 26 -1 35 -3 3 -8 2 -12 -1z"/>
<path d="M7730 5360 c0 -5 5 -10 11 -10 5 0 7 5 4 10 -3 6 -8 10 -11 10 -2 0
-4 -4 -4 -10z"/>
<path d="M8160 5328 c0 -4 4 -8 9 -8 6 0 12 4 15 8 3 5 -1 9 -9 9 -8 0 -15 -4
-15 -9z"/>
<path d="M8120 5320 c0 -13 18 -22 24 -11 3 5 -1 11 -9 15 -8 3 -15 1 -15 -4z"/>
<path d="M7710 5316 c0 -2 7 -7 16 -10 8 -3 12 -2 9 4 -6 10 -25 14 -25 6z"/>
<path d="M8140 5280 c0 -5 12 -10 28 -9 24 0 25 1 7 9 -27 12 -35 12 -35 0z"/>
<path d="M8235 5281 c-3 -5 -1 -12 5 -16 5 -3 10 1 10 9 0 18 -6 21 -15 7z"/>
<path d="M8165 5230 c3 -5 10 -10 16 -10 5 0 9 5 9 10 0 6 -7 10 -16 10 -8 0
-12 -4 -9 -10z"/>
<path d="M8234 5229 c-3 -6 -2 -15 3 -20 5 -5 9 -1 10 11 2 22 -2 25 -13 9z"/>
<path d="M8220 5181 c0 -6 5 -13 10 -16 6 -3 10 1 10 9 0 9 -4 16 -10 16 -5 0
-10 -4 -10 -9z"/>
<path d="M7730 5170 c0 -5 5 -10 11 -10 5 0 7 5 4 10 -3 6 -8 10 -11 10 -2 0
-4 -4 -4 -10z"/>
<path d="M8170 5169 c0 -5 5 -7 10 -4 6 3 10 8 10 11 0 2 -4 4 -10 4 -5 0 -10
-5 -10 -11z"/>
<path d="M8130 5115 c0 -5 5 -17 10 -25 5 -8 10 -10 10 -5 0 6 -5 17 -10 25
-5 8 -10 11 -10 5z"/>
<path d="M8208 5103 c7 -3 16 -2 19 1 4 3 -2 6 -13 5 -11 0 -14 -3 -6 -6z"/>
<path d="M8214 5034 c9 -8 16 -20 16 -25 0 -6 5 -7 11 -4 11 7 -17 45 -33 45
-5 0 -2 -7 6 -16z"/>
<path d="M8150 5020 c8 -5 20 -10 25 -10 6 0 3 5 -5 10 -8 5 -19 10 -25 10 -5
0 -3 -5 5 -10z"/>
<path d="M8205 4900 c3 -5 8 -10 11 -10 2 0 4 5 4 10 0 6 -5 10 -11 10 -5 0
-7 -4 -4 -10z"/>
<path d="M8220 4849 c0 -5 5 -7 10 -4 6 3 10 8 10 11 0 2 -4 4 -10 4 -5 0 -10
-5 -10 -11z"/>
<path d="M8220 4600 c0 -5 5 -10 11 -10 5 0 7 5 4 10 -3 6 -8 10 -11 10 -2 0
-4 -4 -4 -10z"/>
<path d="M8160 4580 c0 -5 5 -10 11 -10 5 0 7 5 4 10 -3 6 -8 10 -11 10 -2 0
-4 -4 -4 -10z"/>
<path d="M8207 4519 c7 -7 15 -10 18 -7 3 3 -2 9 -12 12 -14 6 -15 5 -6 -5z"/>
<path d="M8182 4500 c0 -14 2 -19 5 -12 2 6 2 18 0 25 -3 6 -5 1 -5 -13z"/>
<path d="M8125 4300 c3 -5 8 -10 11 -10 2 0 4 5 4 10 0 6 -5 10 -11 10 -5 0
-7 -4 -4 -10z"/>
<path d="M8170 4171 c0 -6 4 -13 10 -16 6 -3 7 1 4 9 -7 18 -14 21 -14 7z"/>
<path d="M8130 3946 c0 -2 7 -7 16 -10 8 -3 12 -2 9 4 -6 10 -25 14 -25 6z"/>
<path d="M8121 3854 c0 -11 3 -14 6 -6 3 7 2 16 -1 19 -3 4 -6 -2 -5 -13z"/>
<path d="M8150 3825 c0 -8 4 -15 10 -15 5 0 7 7 4 15 -4 8 -8 15 -10 15 -2 0
-4 -7 -4 -15z"/>
<path d="M8170 3781 c0 -10 19 -25 25 -20 1 2 -3 10 -11 17 -8 7 -14 8 -14 3z"/>
<path d="M8226 3754 c-8 -22 -4 -25 11 -9 7 8 9 16 4 19 -5 3 -12 -1 -15 -10z"/>
<path d="M8157 3589 c7 -7 15 -10 18 -7 3 3 -2 9 -12 12 -14 6 -15 5 -6 -5z"/>
<path d="M8194 3565 c-10 -8 -14 -15 -8 -15 6 0 17 7 24 15 16 19 9 19 -16 0z"/>
<path d="M8145 3540 c3 -5 11 -10 16 -10 6 0 7 5 4 10 -3 6 -11 10 -16 10 -6
0 -7 -4 -4 -10z"/>
<path d="M8215 3540 c3 -5 8 -10 11 -10 2 0 4 5 4 10 0 6 -5 10 -11 10 -5 0
-7 -4 -4 -10z"/>
<path d="M8160 3489 c0 -5 5 -7 10 -4 6 3 10 8 10 11 0 2 -4 4 -10 4 -5 0 -10
-5 -10 -11z"/>
<path d="M8190 3450 c0 -5 7 -10 15 -10 8 0 15 5 15 10 0 6 -7 10 -15 10 -8 0
-15 -4 -15 -10z"/>
<path d="M8125 3340 c3 -5 8 -10 11 -10 2 0 4 5 4 10 0 6 -5 10 -11 10 -5 0
-7 -4 -4 -10z"/>
<path d="M8125 3260 c-3 -5 -1 -10 4 -10 6 0 11 5 11 10 0 6 -2 10 -4 10 -3 0
-8 -4 -11 -10z"/>
<path d="M2480 3252 c0 -19 29 -47 39 -37 6 7 1 16 -15 28 -13 10 -24 14 -24
9z"/>
<path d="M8158 3203 c7 -3 16 -2 19 1 4 3 -2 6 -13 5 -11 0 -14 -3 -6 -6z"/>
<path d="M8135 3170 c-3 -5 -1 -10 4 -10 6 0 11 5 11 10 0 6 -2 10 -4 10 -3 0
-8 -4 -11 -10z"/>
<path d="M8190 3090 c0 -5 5 -10 10 -10 6 0 10 5 10 10 0 6 -4 10 -10 10 -5 0
-10 -4 -10 -10z"/>
<path d="M8220 3070 c0 -5 5 -10 10 -10 6 0 10 5 10 10 0 6 -4 10 -10 10 -5 0
-10 -4 -10 -10z"/>
<path d="M8197 3013 c3 -7 6 -13 8 -13 1 0 7 6 13 13 8 10 6 13 -7 13 -11 0
-17 -6 -14 -13z"/>
<path d="M8167 2993 c-4 -3 -7 -11 -7 -17 0 -6 5 -5 12 2 6 6 9 14 7 17 -3 3
-9 2 -12 -2z"/>
<path d="M8190 2955 c-16 -19 -1 -19 24 0 16 12 17 15 4 15 -8 0 -21 -7 -28
-15z"/>
<path d="M8217 2890 c3 -11 9 -20 15 -20 5 0 4 9 -2 20 -6 11 -12 20 -14 20
-2 0 -2 -9 1 -20z"/>
<path d="M8120 2850 c20 -13 33 -13 25 0 -3 6 -14 10 -23 10 -15 0 -15 -2 -2
-10z"/>
<path d="M8083 2796 c0 -21 3 -25 17 -21 13 4 20 -1 25 -15 4 -12 9 -20 11
-17 3 2 0 16 -5 30 -7 19 -7 27 2 30 7 2 1 2 -12 0 -13 -2 -27 1 -31 7 -4 7
-7 1 -7 -14z"/>
<path d="M8151 2774 c0 -11 3 -14 6 -6 3 7 2 16 -1 19 -3 4 -6 -2 -5 -13z"/>
<path d="M8096 2737 c-8 -31 -7 -37 5 -37 5 0 7 5 4 10 -3 6 2 10 12 11 11 0
13 3 5 6 -6 2 -10 9 -7 13 3 5 1 11 -4 14 -5 3 -11 -4 -15 -17z"/>
<path d="M8170 2750 c0 -5 5 -10 10 -10 6 0 10 5 10 10 0 6 -4 10 -10 10 -5 0
-10 -4 -10 -10z"/>
<path d="M8084 2675 c4 -11 -1 -15 -17 -15 -16 0 -18 -3 -8 -9 11 -7 51 -4 51
4 0 13 -14 35 -22 35 -6 0 -8 -7 -4 -15z"/>
<path d="M8147 2683 c-3 -5 4 -17 14 -27 19 -19 24 -12 13 18 -6 17 -20 21
-27 9z"/>
<path d="M8060 2604 c0 -8 5 -12 10 -9 6 4 8 11 5 16 -9 14 -15 11 -15 -7z"/>
<path d="M8091 2584 c0 -11 3 -14 6 -6 3 7 2 16 -1 19 -3 4 -6 -2 -5 -13z"/>
<path d="M8060 2571 c0 -5 8 -15 18 -22 15 -12 16 -12 5 2 -7 9 -10 19 -6 22
3 4 1 7 -5 7 -7 0 -12 -4 -12 -9z"/>
<path d="M8095 2500 c3 -5 11 -10 16 -10 6 0 7 5 4 10 -3 6 -11 10 -16 10 -6
0 -7 -4 -4 -10z"/>
<path d="M8020 2475 c0 -8 7 -15 15 -15 8 0 15 4 15 9 0 5 -7 11 -15 15 -9 3
-15 0 -15 -9z"/>
<path d="M8070 2440 c0 -5 5 -10 11 -10 5 0 7 5 4 10 -3 6 -8 10 -11 10 -2 0
-4 -4 -4 -10z"/>
<path d="M7872 2311 c-22 -16 -22 -17 -2 -18 11 -1 18 2 15 7 -3 4 1 10 7 13
7 2 11 7 8 10 -3 3 -16 -2 -28 -12z"/>
<path d="M7919 2322 c9 -7 10 -11 2 -15 -7 -4 -8 -5 0 -3 15 2 13 20 -3 24
-10 3 -10 2 1 -6z"/>
<path d="M7875 2270 c3 -5 8 -10 11 -10 2 0 4 5 4 10 0 6 -5 10 -11 10 -5 0
-7 -4 -4 -10z"/>
<path d="M7707 2214 c-8 -8 1 -24 14 -24 5 0 9 7 9 15 0 15 -12 20 -23 9z"/>
<path d="M7741 2194 c0 -11 3 -14 6 -6 3 7 2 16 -1 19 -3 4 -6 -2 -5 -13z"/>
<path d="M7470 2120 c0 -11 5 -20 10 -20 6 0 10 9 10 20 0 11 -4 20 -10 20 -5
0 -10 -9 -10 -20z"/>
<path d="M7500 2130 c0 -5 5 -10 11 -10 5 0 7 5 4 10 -3 6 -8 10 -11 10 -2 0
-4 -4 -4 -10z"/>
<path d="M2733 2106 c7 -13 15 -22 19 -20 8 5 -13 44 -23 44 -4 0 -2 -11 4
-24z"/>
<path d="M2685 2100 c3 -5 10 -10 16 -10 5 0 9 5 9 10 0 6 -7 10 -16 10 -8 0
-12 -4 -9 -10z"/>
<path d="M2780 2100 c0 -5 5 -10 10 -10 6 0 10 5 10 10 0 6 -4 10 -10 10 -5 0
-10 -4 -10 -10z"/>
<path d="M2905 2100 c-4 -6 6 -10 22 -10 22 0 25 2 13 10 -19 12 -27 12 -35 0z"/>
<path d="M3415 2100 c-3 -5 -1 -10 4 -10 6 0 11 5 11 10 0 6 -2 10 -4 10 -3 0
-8 -4 -11 -10z"/>
<path d="M2998 2093 c7 -3 16 -2 19 1 4 3 -2 6 -13 5 -11 0 -14 -3 -6 -6z"/>
<path d="M7330 2085 c0 -8 2 -15 4 -15 2 0 6 7 10 15 3 8 1 15 -4 15 -6 0 -10
-7 -10 -15z"/>
<path d="M2715 2070 c3 -5 8 -10 11 -10 2 0 4 5 4 10 0 6 -5 10 -11 10 -5 0
-7 -4 -4 -10z"/>
<path d="M2885 2070 c-3 -5 -1 -10 4 -10 6 0 11 5 11 10 0 6 -2 10 -4 10 -3 0
-8 -4 -11 -10z"/>
<path d="M5235 2070 c-3 -5 -1 -10 4 -10 6 0 11 5 11 10 0 6 -2 10 -4 10 -3 0
-8 -4 -11 -10z"/>
<path d="M3260 2066 c0 -2 7 -7 16 -10 8 -3 12 -2 9 4 -6 10 -25 14 -25 6z"/>
</g>
</svg>
